<svg   viewBox="0 0 1036 807" fill="none" xmlns="http://www.w3.org/2000/svg">
<path opacity="0.5" d="M221.34 60.2603C137.949 130.132 125.026 262.256 68.5478 359.728C48.8873 393.645 23.4833 423.999 10.229 461.626C-20.2006 547.749 21.6792 645.442 77.7337 713.845C104.463 746.476 135.684 776.371 173.459 790.125C202.508 800.703 233.656 801.143 264.232 801.419L799.926 806.928C859.736 807.534 926.191 805.349 969.194 759.183C998.832 727.397 1010.87 680.974 1021.09 636.664C1033.64 582.217 1045.02 523.087 1025.49 471.23C1003.18 411.898 946.754 378.275 911.704 327.078C854.821 244.131 856.128 118.674 783.689 52.456C749.873 21.5506 705.25 9.4309 661.768 3.37103C579.794 -8.06926 502.147 13.5259 421.645 10.5143C352.833 7.94348 278.426 12.4241 221.34 60.2603Z" fill="#E7ECFF"/>
</svg>
                                                                    