<svg id="eTbOX7tgqYv1" xmlns="http://www.w3.org/2000/svg" xmlns:xlink="http://www.w3.org/1999/xlink" viewBox="0 0 481 317" shape-rendering="geometricPrecision" text-rendering="geometricPrecision"><path d="M99.3658,137.824c-24.3005.111-44.0802.468-44.0802.468s23.5113-30.906,43.9921-19.456c20.4803,11.451,44.0083,19.053,44.0083,19.053s-19.62-.176-43.9202-.065Z" fill="#f2f2f2"/><path d="M371.286,147.292c2.761,0,5-2.239,5-5c0-2.762-2.239-5-5-5-2.762,0-5,2.238-5,5c0,2.761,2.238,5,5,5Z" fill="#ff6584"/><path d="M334.275,221.606l37.987-43.621l1.173,1.021-37.987,43.621-1.173-1.021Z" fill="#3f3d56"/><path d="M373.286,186.292c4.418,0,8-3.582,8-8c0-4.419-3.582-8-8-8-4.419,0-8,3.581-8,8c0,4.418,3.581,8,8,8Z" fill="#3f3d56"/><path d="M349.572,205.292c0,0,15.359-19.573-4.286-33l4.286,33Z" fill="#3f3d56"/><path id="eTbOX7tgqYv7" d="M94.8637,239.696c28.1483,52.191,87.8893,74.596,87.8893,74.596s14.103-62.214-14.045-114.405c-28.149-52.191-87.8892-74.595-87.8892-74.595s-14.1033,62.213,14.0449,114.404Z" fill="#3f3d56"/>
<path id="eTbOX7tgqYv8" d="M113.907,222.752c50.81,30.656,70.379,91.548,70.379,91.548s-62.811,11.188-113.6216-19.468C19.8543,264.175,0.285645,203.284,0.285645,203.284s62.810955-11.189,113.621355,19.468Z" transform="translate(-9.73523 0.500244)" fill="#111b47"/>
<path d="M315.48,223.022c-51.086,30.237-71.194,91.02-71.194,91.02s62.719,11.757,113.805-18.48c51.087-30.238,71.195-91.02,71.195-91.02s-62.72-11.758-113.806,18.48Z" fill="#3f3d56"/><path id="eTbOX7tgqYv10" d="M334.024,241.512c-28.604,51.915-88.531,73.78-88.531,73.78s-13.551-62.306,15.054-114.221c28.604-51.915,88.532-73.779,88.532-73.779s13.55,62.306-15.055,114.22Z" fill="#111b47"/><g id="eTbOX7tgqYv11"><path d="M230.167,99.3318c-6.015-5.4427-6.858-14.5893-1.938-21.0401-.314.2947-.621.6006-.915.9258-5.778,6.3936-5.281,16.2629,1.109,22.0435c6.391,5.781,16.256,5.284,22.034-1.109.294-.3255.567-.6618.829-1.004-5.922,5.545-15.102,5.625-21.119.1838Z" fill="#2f2e41"/><path d="M215.786,110.292c17.949,0,32.5-14.551,32.5-32.5003s-14.551-32.5-32.5-32.5c-17.95,0-32.5,14.5508-32.5,32.5s14.55,32.5003,32.5,32.5003Z" fill="#2f2e41"/><path d="M211.786,111.292c10.769,0,19.5-8.731,19.5-19.5003c0-10.7695-8.731-19.5-19.5-19.5-10.77,0-19.5,8.7305-19.5,19.5c0,10.7693,8.73,19.5003,19.5,19.5003Z" fill="#ffb8b8"/><path d="M209.786,86.2917c9.112,0,16.5-5.1487,16.5-11.5s-7.388-11.5-16.5-11.5c-9.113,0-16.5,5.1488-16.5,11.5s7.387,11.5,16.5,11.5Z" fill="#2f2e41"/><path d="M236.286,65.2917c8.836,0,16-7.1634,16-16c0-8.8365-7.164-16-16-16-8.837,0-16,7.1635-16,16c0,8.8366,7.163,16,16,16Z" fill="#2f2e41"/><path d="M247.286,60.6764c-8.319-.0012-15.248-6.2545-15.941-14.3847-.036.4316-.059.8669-.059,1.3077c0,8.6667,7.163,15.6923,16,15.6923c8.836,0,16-7.0256,16-15.6923c0-.4408-.024-.876-.06-1.3077-.692,8.1303-7.622,14.3835-15.94,14.3847Z" fill="#2f2e41"/></g><path id="eTbOX7tgqYv18" d="M206.523,119.323l.975-2.506-17.736,14.84-21.439,11.949c0,0-10.914-41.629-11.694-42.399-.779-.771-14.812-30.0655-21.049-16.1893-6.236,13.8762,12.084,21.9703,12.084,21.9703s.585,50.687,19.295,50.302c18.71-.386,41.903-17.153,42.293-18.695s-2.729-19.272-2.729-19.272Z" transform="translate(-3.46354 1.455055)" fill="#ffb8b8"/><path d="M215.165,106.042c0,0,5.064,6.568,3.505,7.341-1.558.772-10.517,1.159-15.97,7.727s6.622,23.182,6.622,23.182l45.964-30.523-18.697-6.182c0,0-12.855-6.954-12.465-14.2953l-8.959,12.7503Z" fill="#ffb8b8"/><path d="M277.286,316.292h-51.63c-2.925-21.338-4.277-40.892-4.277-40.892s-.755,19.669-2.762,40.892h-66.331c9.402-62.841,53.978-130.985,53.978-130.985s.387-9.282,1.551-10.83c1.164-1.543-6.588-1.93-10.079-13.53-2.128-7.081-.215-11.715,1.604-14.246.624-.912,1.393-1.717,2.275-2.384c0,0,.775-8.117,0-9.278-.1-.152.665-.685,2.08-1.496c1.18-.68,2.81-1.553,4.759-2.557c11.169-5.779,32.789-16.003,40.194-19.486c1.625-.769,2.568-1.208,2.568-1.208l13.177,4.639c10.461,3.477,10.461,25.521,10.461,25.521l-.592.899-15.813,23.9-9.172,13.87c2.327,1.542-2.322,11.212-2.322,11.212s6.625,9.497,12.013,23.994c3.047,8.068,5.124,16.468,6.19,25.025.679,5.545.812,11.143.398,16.714-1.436,18.628,4.948,41.268,11.73,60.226Z" fill="#2f2e41"/><path d="M264.236,116.726c-.859-.489-1.888-.569-2.811-.22s-1.647,1.093-1.979,2.032c-1.153,3.208-2.322,9.896-1.905,23.801.766,25.573,1.149,43.009,1.149,43.009v38.747c0,0-16.853,37.197-7.661,37.197c9.193,0,15.704-29.448,15.704-29.448s8.426-44.558,5.745-52.308c0,0,7.56-53.535-8.242-62.81Z" fill="#ffb8b8"/><path d="M230.675,88.3101c.729-.174.997-1.665.599-3.3302s-1.311-2.874-2.039-2.7c-.729.174-.997,1.665-.599,3.3302.397,1.6652,1.31,2.874,2.039,2.7Z" fill="#ffb8b8"/><path d="M230.286,88.2917c.552,0,1-.4477,1-1s-.448-1-1-1c-.553,0-1,.4478-1,1s.447,1,1,1Z" fill="#f2f2f2"/><path d="M40.2856,147.792c0,3.59,2.9102,6.5,6.5,6.5c3.5882-.004,6.496-2.912,6.5-6.5c0-3.59-2.9101-6.5-6.5-6.5s-6.5,2.91-6.5,6.5Zm1.0834,0c0-2.992,2.4251-5.417,5.4166-5.417c2.9902.004,5.4133,2.427,5.4167,5.417c0,2.991-2.4251,5.416-5.4167,5.416s-5.4166-2.425-5.4166-5.416Z" clip-rule="evenodd" fill="#3f3d56" fill-rule="evenodd"/><path id="eTbOX7tgqYv25" d="M304.286,108.292h14v-14.0003h-14v14.0003Zm12.923-1.077h-11.846v-11.8463h11.846v11.8463Z" clip-rule="evenodd" fill="#3f3d56" fill-rule="evenodd"/><path d="M436.366,180.824c-24.301.111-44.08.468-44.08.468s23.511-30.906,43.992-19.456c20.48,11.451,44.008,19.053,44.008,19.053s-19.62-.176-43.92-.065Z" fill="#f2f2f2"/><path d="M361.366,75.8243c-24.301.1112-44.08.4674-44.08.4674s23.511-30.9058,43.992-19.4554c20.48,11.4504,44.008,19.053,44.008,19.053s-19.62-.1761-43.92-.065Z" fill="#f2f2f2"/><g id="eTbOX7tgqYv28" transform="translate(.000001 0)"><path d="M131.643,89.4247L75.5219,60.4528c-3.8324-1.9784-5.3416-6.7012-3.371-10.5487L85.3724,24.0909c.388-.7576,1.0692-1.3217,1.8838-1.5602L131.491,9.58216c3.672-1.07504,7.541.92204,8.806,4.54624l14.534,41.6208c.733,2.1013.575,4.4129-.44,6.3931l-12.24,23.8981c-.947,1.8477-2.585,3.2422-4.556,3.8769-1.97.6346-4.111.4574-5.952-.4926Z" fill="#f2f2f2"/><path d="M133.632,79.8677L77.0911,55.6267c-1.8218-.9408-.1135.5053.8233-1.3243L85.022,25.2917l69.264,35.7674-17.511,21.7435c-.937,1.8295-1.321-1.9941-3.143-2.9349Z" opacity="0.1"/><path d="M86.4422,62.9324c-4.0205-2.0675-5.6039-7.0028-3.5364-11.0233L101.945,14.8822c2.068-4.0206,7.003-5.60391,11.024-3.5365l37.027,19.0397c4.02,2.0674,5.604,7.0027,3.536,11.0233l-19.04,37.0269c-2.067,4.0205-7.002,5.6039-11.023,3.5365L86.4422,62.9324Z" fill="#111b47"/><path d="M145.286,56.8773L130.744,85.2917L79.2856,58.7057l14.542-28.414L113.162,56.0794l32.124.7979Z" opacity="0.1"/><path d="M112.537,57.9485L87.5734,24.8939c-.3139-.4156-.82-.641-1.3398-.5966-.5197.0443-.9801.3522-1.2187.8149L70.8095,52.6678c-.574,1.1133-.681,2.4085-.2976,3.6006s1.2259,2.1835,2.3421,2.756l61.892,31.7449c1.116.5725,2.415.6792,3.61.2968c1.195-.3825,2.189-1.2228,2.763-2.3362l13.962-27.0835c.291-.5647.271-1.239-.054-1.785-.325-.5461-.909-.8871-1.545-.9028l-40.945-1.0101Z" fill="#f2f2f2"/><path d="M107.698,14.6239l14.427,7.4184-1.049,2.0402-14.427-7.4184l1.049-2.0402Z" fill="#f2f2f2"/><path d="M102.711,21.4564l42.843,22.0305-.6,1.1658-42.843-22.0305.6-1.1658Z" fill="#f2f2f2"/><path d="M100.687,25.391l42.844,22.0305-.6,1.1658-42.843-22.0305.599-1.1658Z" fill="#f2f2f2"/><path d="M98.6642,29.3256L141.507,51.356l-.599,1.1658L98.0647,30.4914l.5995-1.1658Z" fill="#f2f2f2"/><path d="M113.359,12.5735c1.7-3.30574.403-7.36109-2.897-9.05786s-7.353-.39244-9.053,2.91332c-1.6994,3.30575-.402,7.36114,2.897,9.05784c3.3,1.6968,7.353.3925,9.053-2.9133Z" fill="#fff"/><path d="M100.173,5.63415c2.021-3.92841,6.846-5.47546,10.776-3.45543c3.92,2.02907,5.464,6.84108,3.457,10.77068-2.021,3.9284-6.845,5.4754-10.776,3.4554-3.9302-2.0201-5.478-6.84224-3.457-10.77065Zm1.933,1.17926l1.772,5.51999l9.948-3.18448-.497-1.54828-8.398,2.69286-1.276-3.97681-1.549.49672Z" clip-rule="evenodd" fill="#57b894" fill-rule="evenodd"/></g>
<script><![CDATA[
!function(t,n){"object"==typeof exports&&"undefined"!=typeof module?module.exports=n():"function"==typeof define&&define.amd?define(n):((t="undefined"!=typeof globalThis?globalThis:t||self).__SVGATOR_PLAYER__=t.__SVGATOR_PLAYER__||{},t.__SVGATOR_PLAYER__["5c7f360c"]=n())}(this,(function(){"use strict";function t(t,n){var e=Object.keys(t);if(Object.getOwnPropertySymbols){var r=Object.getOwnPropertySymbols(t);n&&(r=r.filter((function(n){return Object.getOwnPropertyDescriptor(t,n).enumerable}))),e.push.apply(e,r)}return e}function n(n){for(var e=1;e<arguments.length;e++){var r=null!=arguments[e]?arguments[e]:{};e%2?t(Object(r),!0).forEach((function(t){o(n,t,r[t])})):Object.getOwnPropertyDescriptors?Object.defineProperties(n,Object.getOwnPropertyDescriptors(r)):t(Object(r)).forEach((function(t){Object.defineProperty(n,t,Object.getOwnPropertyDescriptor(r,t))}))}return n}function e(t){return(e="function"==typeof Symbol&&"symbol"==typeof Symbol.iterator?function(t){return typeof t}:function(t){return t&&"function"==typeof Symbol&&t.constructor===Symbol&&t!==Symbol.prototype?"symbol":typeof t})(t)}function r(t,n){if(!(t instanceof n))throw new TypeError("Cannot call a class as a function")}function i(t,n){for(var e=0;e<n.length;e++){var r=n[e];r.enumerable=r.enumerable||!1,r.configurable=!0,"value"in r&&(r.writable=!0),Object.defineProperty(t,r.key,r)}}function u(t,n,e){return n&&i(t.prototype,n),e&&i(t,e),t}function o(t,n,e){return n in t?Object.defineProperty(t,n,{value:e,enumerable:!0,configurable:!0,writable:!0}):t[n]=e,t}function a(t){return(a=Object.setPrototypeOf?Object.getPrototypeOf:function(t){return t.__proto__||Object.getPrototypeOf(t)})(t)}function l(t,n){return(l=Object.setPrototypeOf||function(t,n){return t.__proto__=n,t})(t,n)}function s(){if("undefined"==typeof Reflect||!Reflect.construct)return!1;if(Reflect.construct.sham)return!1;if("function"==typeof Proxy)return!0;try{return Boolean.prototype.valueOf.call(Reflect.construct(Boolean,[],(function(){}))),!0}catch(t){return!1}}function f(t,n,e){return(f=s()?Reflect.construct:function(t,n,e){var r=[null];r.push.apply(r,n);var i=new(Function.bind.apply(t,r));return e&&l(i,e.prototype),i}).apply(null,arguments)}function c(t,n){if(n&&("object"==typeof n||"function"==typeof n))return n;if(void 0!==n)throw new TypeError("Derived constructors may only return object or undefined");return function(t){if(void 0===t)throw new ReferenceError("this hasn't been initialised - super() hasn't been called");return t}(t)}function h(t,n,e){return(h="undefined"!=typeof Reflect&&Reflect.get?Reflect.get:function(t,n,e){var r=function(t,n){for(;!Object.prototype.hasOwnProperty.call(t,n)&&null!==(t=a(t)););return t}(t,n);if(r){var i=Object.getOwnPropertyDescriptor(r,n);return i.get?i.get.call(e):i.value}})(t,n,e||t)}function v(t){return function(t){if(Array.isArray(t))return y(t)}(t)||function(t){if("undefined"!=typeof Symbol&&null!=t[Symbol.iterator]||null!=t["@@iterator"])return Array.from(t)}(t)||function(t,n){if(!t)return;if("string"==typeof t)return y(t,n);var e=Object.prototype.toString.call(t).slice(8,-1);"Object"===e&&t.constructor&&(e=t.constructor.name);if("Map"===e||"Set"===e)return Array.from(t);if("Arguments"===e||/^(?:Ui|I)nt(?:8|16|32)(?:Clamped)?Array$/.test(e))return y(t,n)}(t)||function(){throw new TypeError("Invalid attempt to spread non-iterable instance.\nIn order to be iterable, non-array objects must have a [Symbol.iterator]() method.")}()}function y(t,n){(null==n||n>t.length)&&(n=t.length);for(var e=0,r=new Array(n);e<n;e++)r[e]=t[e];return r}Number.isInteger||(Number.isInteger=function(t){return"number"==typeof t&&isFinite(t)&&Math.floor(t)===t}),Number.EPSILON||(Number.EPSILON=2220446049250313e-31);var g=d(Math.pow(10,-6));function d(t){var n=arguments.length>1&&void 0!==arguments[1]?arguments[1]:6;if(Number.isInteger(t))return t;var e=Math.pow(10,n);return Math.round((+t+Number.EPSILON)*e)/e}function p(t,n){var e=arguments.length>2&&void 0!==arguments[2]?arguments[2]:g;return Math.abs(t-n)<e}var m=Math.PI/180;function b(t){return t}function w(t,n,e){var r=1-e;return 3*e*r*(t*r+n*e)+e*e*e}function x(){var t=arguments.length>0&&void 0!==arguments[0]?arguments[0]:0,n=arguments.length>1&&void 0!==arguments[1]?arguments[1]:0,e=arguments.length>2&&void 0!==arguments[2]?arguments[2]:1,r=arguments.length>3&&void 0!==arguments[3]?arguments[3]:1;return t<0||t>1||e<0||e>1?null:p(t,n)&&p(e,r)?b:function(i){if(i<=0)return t>0?i*n/t:0===n&&e>0?i*r/e:0;if(i>=1)return e<1?1+(i-1)*(r-1)/(e-1):1===e&&t<1?1+(i-1)*(n-1)/(t-1):1;for(var u,o=0,a=1;o<a;){var l=w(t,e,u=(o+a)/2);if(p(i,l))break;l<i?o=u:a=u}return w(n,r,u)}}function A(){return 1}function k(t){return 1===t?1:0}function _(){var t=arguments.length>0&&void 0!==arguments[0]?arguments[0]:1,n=arguments.length>1&&void 0!==arguments[1]?arguments[1]:0;if(1===t){if(0===n)return k;if(1===n)return A}var e=1/t;return function(t){return t>=1?1:(t+=n*e)-t%e}}var S=Math.sin,O=Math.cos,j=Math.acos,M=Math.asin,P=Math.tan,E=Math.atan2,I=Math.PI/180,R=180/Math.PI,F=Math.sqrt,N=function(){function t(){var n=arguments.length>0&&void 0!==arguments[0]?arguments[0]:1,e=arguments.length>1&&void 0!==arguments[1]?arguments[1]:0,i=arguments.length>2&&void 0!==arguments[2]?arguments[2]:0,u=arguments.length>3&&void 0!==arguments[3]?arguments[3]:1,o=arguments.length>4&&void 0!==arguments[4]?arguments[4]:0,a=arguments.length>5&&void 0!==arguments[5]?arguments[5]:0;r(this,t),this.m=[n,e,i,u,o,a],this.i=null,this.w=null,this.s=null}return u(t,[{key:"determinant",get:function(){var t=this.m;return t[0]*t[3]-t[1]*t[2]}},{key:"isIdentity",get:function(){if(null===this.i){var t=this.m;this.i=1===t[0]&&0===t[1]&&0===t[2]&&1===t[3]&&0===t[4]&&0===t[5]}return this.i}},{key:"point",value:function(t,n){var e=this.m;return{x:e[0]*t+e[2]*n+e[4],y:e[1]*t+e[3]*n+e[5]}}},{key:"translateSelf",value:function(){var t=arguments.length>0&&void 0!==arguments[0]?arguments[0]:0,n=arguments.length>1&&void 0!==arguments[1]?arguments[1]:0;if(!t&&!n)return this;var e=this.m;return e[4]+=e[0]*t+e[2]*n,e[5]+=e[1]*t+e[3]*n,this.w=this.s=this.i=null,this}},{key:"rotateSelf",value:function(){var t=arguments.length>0&&void 0!==arguments[0]?arguments[0]:0;if(t%=360){var n=S(t*=I),e=O(t),r=this.m,i=r[0],u=r[1];r[0]=i*e+r[2]*n,r[1]=u*e+r[3]*n,r[2]=r[2]*e-i*n,r[3]=r[3]*e-u*n,this.w=this.s=this.i=null}return this}},{key:"scaleSelf",value:function(){var t=arguments.length>0&&void 0!==arguments[0]?arguments[0]:1,n=arguments.length>1&&void 0!==arguments[1]?arguments[1]:1;if(1!==t||1!==n){var e=this.m;e[0]*=t,e[1]*=t,e[2]*=n,e[3]*=n,this.w=this.s=this.i=null}return this}},{key:"skewSelf",value:function(t,n){if(n%=360,(t%=360)||n){var e=this.m,r=e[0],i=e[1],u=e[2],o=e[3];t&&(t=P(t*I),e[2]+=r*t,e[3]+=i*t),n&&(n=P(n*I),e[0]+=u*n,e[1]+=o*n),this.w=this.s=this.i=null}return this}},{key:"resetSelf",value:function(){var t=arguments.length>0&&void 0!==arguments[0]?arguments[0]:1,n=arguments.length>1&&void 0!==arguments[1]?arguments[1]:0,e=arguments.length>2&&void 0!==arguments[2]?arguments[2]:0,r=arguments.length>3&&void 0!==arguments[3]?arguments[3]:1,i=arguments.length>4&&void 0!==arguments[4]?arguments[4]:0,u=arguments.length>5&&void 0!==arguments[5]?arguments[5]:0,o=this.m;return o[0]=t,o[1]=n,o[2]=e,o[3]=r,o[4]=i,o[5]=u,this.w=this.s=this.i=null,this}},{key:"recomposeSelf",value:function(){var t=arguments.length>0&&void 0!==arguments[0]?arguments[0]:null,n=arguments.length>1&&void 0!==arguments[1]?arguments[1]:null,e=arguments.length>2&&void 0!==arguments[2]?arguments[2]:null,r=arguments.length>3&&void 0!==arguments[3]?arguments[3]:null,i=arguments.length>4&&void 0!==arguments[4]?arguments[4]:null;return this.isIdentity||this.resetSelf(),t&&(t.x||t.y)&&this.translateSelf(t.x,t.y),n&&this.rotateSelf(n),e&&(e.x&&this.skewSelf(e.x,0),e.y&&this.skewSelf(0,e.y)),!r||1===r.x&&1===r.y||this.scaleSelf(r.x,r.y),i&&(i.x||i.y)&&this.translateSelf(i.x,i.y),this}},{key:"decompose",value:function(){var t=arguments.length>0&&void 0!==arguments[0]?arguments[0]:0,n=arguments.length>1&&void 0!==arguments[1]?arguments[1]:0,e=this.m,r=e[0]*e[0]+e[1]*e[1],i=[[e[0],e[1]],[e[2],e[3]]],u=F(r);if(0===u)return{origin:{x:d(e[4]),y:d(e[5])},translate:{x:d(t),y:d(n)},scale:{x:0,y:0},skew:{x:0,y:0},rotate:0};i[0][0]/=u,i[0][1]/=u;var o=e[0]*e[3]-e[1]*e[2]<0;o&&(u=-u);var a=i[0][0]*i[1][0]+i[0][1]*i[1][1];i[1][0]-=i[0][0]*a,i[1][1]-=i[0][1]*a;var l=F(i[1][0]*i[1][0]+i[1][1]*i[1][1]);if(0===l)return{origin:{x:d(e[4]),y:d(e[5])},translate:{x:d(t),y:d(n)},scale:{x:d(u),y:0},skew:{x:0,y:0},rotate:0};i[1][0]/=l,i[1][1]/=l,a/=l;var s=0;return i[1][1]<0?(s=j(i[1][1])*R,i[0][1]<0&&(s=360-s)):s=M(i[0][1])*R,o&&(s=-s),a=E(a,F(i[0][0]*i[0][0]+i[0][1]*i[0][1]))*R,o&&(a=-a),{origin:{x:d(e[4]),y:d(e[5])},translate:{x:d(t),y:d(n)},scale:{x:d(u),y:d(l)},skew:{x:d(a),y:0},rotate:d(s)}}},{key:"clone",value:function(){var t=this.m;return new this.constructor(t[0],t[1],t[2],t[3],t[4],t[5])}},{key:"toString",value:function(){var t=arguments.length>0&&void 0!==arguments[0]?arguments[0]:" ";if(null===this.s){var n=this.m.map((function(t){return d(t)}));1===n[0]&&0===n[1]&&0===n[2]&&1===n[3]?this.s="translate("+n[4]+t+n[5]+")":this.s="matrix("+n.join(t)+")"}return this.s}}],[{key:"create",value:function(t){return t?Array.isArray(t)?f(this,v(t)):t instanceof this?t.clone():(new this).recomposeSelf(t.origin,t.rotate,t.skew,t.scale,t.translate):new this}}]),t}();function T(t,n,e){return t>=.5?e:n}function q(t,n,e){return 0===t||n===e?n:t*(e-n)+n}function B(t,n,e){var r=q(t,n,e);return r<=0?0:r}function L(t,n,e){var r=q(t,n,e);return r<=0?0:r>=1?1:r}function C(t,n,e){return 0===t?n:1===t?e:{x:q(t,n.x,e.x),y:q(t,n.y,e.y)}}function D(t,n,e){var r=function(t,n,e){return Math.round(q(t,n,e))}(t,n,e);return r<=0?0:r>=255?255:r}function z(t,n,e){return 0===t?n:1===t?e:{r:D(t,n.r,e.r),g:D(t,n.g,e.g),b:D(t,n.b,e.b),a:q(t,null==n.a?1:n.a,null==e.a?1:e.a)}}function V(t,n){for(var e=[],r=0;r<t;r++)e.push(n);return e}function G(t,n){if(--n<=0)return t;var e=(t=Object.assign([],t)).length;do{for(var r=0;r<e;r++)t.push(t[r])}while(--n>0);return t}var Y,$=function(){function t(n){r(this,t),this.list=n,this.length=n.length}return u(t,[{key:"setAttribute",value:function(t,n){for(var e=this.list,r=0;r<this.length;r++)e[r].setAttribute(t,n)}},{key:"removeAttribute",value:function(t){for(var n=this.list,e=0;e<this.length;e++)n[e].removeAttribute(t)}},{key:"style",value:function(t,n){for(var e=this.list,r=0;r<this.length;r++)e[r].style[t]=n}}]),t}(),U=/-./g,Q=function(t,n){return n.toUpperCase()};function H(t){return"function"==typeof t?t:T}function J(t){return t?"function"==typeof t?t:Array.isArray(t)?function(t){var n=arguments.length>1&&void 0!==arguments[1]?arguments[1]:b;if(!Array.isArray(t))return n;switch(t.length){case 1:return _(t[0])||n;case 2:return _(t[0],t[1])||n;case 4:return x(t[0],t[1],t[2],t[3])||n}return n}(t,null):function(t,n){var e=arguments.length>2&&void 0!==arguments[2]?arguments[2]:b;switch(t){case"linear":return b;case"steps":return _(n.steps||1,n.jump||0)||e;case"bezier":case"cubic-bezier":return x(n.x1||0,n.y1||0,n.x2||0,n.y2||0)||e}return e}(t.type,t.value,null):null}function Z(t,n,e){var r=arguments.length>3&&void 0!==arguments[3]&&arguments[3],i=n.length-1;if(t<=n[0].t)return r?[0,0,n[0].v]:n[0].v;if(t>=n[i].t)return r?[i,1,n[i].v]:n[i].v;var u,o=n[0],a=null;for(u=1;u<=i;u++){if(!(t>n[u].t)){a=n[u];break}o=n[u]}return null==a?r?[i,1,n[i].v]:n[i].v:o.t===a.t?r?[u,1,a.v]:a.v:(t=(t-o.t)/(a.t-o.t),o.e&&(t=o.e(t)),r?[u,t,e(t,o.v,a.v)]:e(t,o.v,a.v))}function K(t,n){var e=arguments.length>2&&void 0!==arguments[2]?arguments[2]:null;return t&&t.length?"function"!=typeof n?null:("function"!=typeof e&&(e=null),function(r){var i=Z(r,t,n);return null!=i&&e&&(i=e(i)),i}):null}function W(t,n){return t.t-n.t}function X(t,n,r,i,u){var o,a="@"===r[0],l="#"===r[0],s=Y[r],f=T;switch(a?(o=r.substr(1),r=o.replace(U,Q)):l&&(r=r.substr(1)),e(s)){case"function":if(f=s(i,u,Z,J,r,a,n,t),l)return f;break;case"string":f=K(i,H(s));break;case"object":if((f=K(i,H(s.i),s.f))&&"function"==typeof s.u)return s.u(n,f,r,a,t)}return f?function(t,n,e){if(arguments.length>3&&void 0!==arguments[3]&&arguments[3])return t instanceof $?function(r){return t.style(n,e(r))}:function(r){return t.style[n]=e(r)};if(Array.isArray(n)){var r=n.length;return function(i){var u=e(i);if(null==u)for(var o=0;o<r;o++)t[o].removeAttribute(n);else for(var a=0;a<r;a++)t[a].setAttribute(n,u)}}return function(r){var i=e(r);null==i?t.removeAttribute(n):t.setAttribute(n,i)}}(n,r,f,a):null}function tt(t,n,r,i){if(!i||"object"!==e(i))return null;var u=null,o=null;return Array.isArray(i)?o=function(t){if(!t||!t.length)return null;for(var n=0;n<t.length;n++)t[n].e&&(t[n].e=J(t[n].e));return t.sort(W)}(i):(o=i.keys,u=i.data||null),o?X(t,n,r,o,u):null}function nt(t,n,e){if(!e)return null;var r=[];for(var i in e)if(e.hasOwnProperty(i)){var u=tt(t,n,i,e[i]);u&&r.push(u)}return r.length?r:null}function et(t,n){if(!n.settings.duration||n.settings.duration<0)return null;var e,r,i,u,o,a=function(t,n){if(!n)return null;var e=[];if(Array.isArray(n))for(var r=n.length,i=0;i<r;i++){var u=n[i];if(2===u.length){var o=null;if("string"==typeof u[0])o=t.getElementById(u[0]);else if(Array.isArray(u[0])){o=[];for(var a=0;a<u[0].length;a++)if("string"==typeof u[0][a]){var l=t.getElementById(u[0][a]);l&&o.push(l)}o=o.length?1===o.length?o[0]:new $(o):null}if(o){var s=nt(t,o,u[1]);s&&(e=e.concat(s))}}}else for(var f in n)if(n.hasOwnProperty(f)){var c=t.getElementById(f);if(c){var h=nt(t,c,n[f]);h&&(e=e.concat(h))}}return e.length?e:null}(t,n.elements);return a?(e=a,r=n.settings,i=r.duration,u=e.length,o=null,function(t,n){var a=r.iterations||1/0,l=(r.alternate&&a%2==0)^r.direction>0?i:0,s=t%i,f=1+(t-s)/i;n*=r.direction,r.alternate&&f%2==0&&(n=-n);var c=!1;if(f>a)s=l,c=!0,-1===r.fill&&(s=r.direction>0?0:i);else if(n<0&&(s=i-s),s===o)return!1;o=s;for(var h=0;h<u;h++)e[h](s);return c}):null}function rt(t,n){if(Y=n,!t||!t.root||!Array.isArray(t.animations))return null;var e=function(t){for(var n=document.getElementsByTagName("svg"),e=0;e<n.length;e++)if(n[e].id===t.root&&!n[e].svgatorAnimation)return n[e].svgatorAnimation=!0,n[e];return null}(t);if(!e)return null;var r=t.animations.map((function(t){return et(e,t)})).filter((function(t){return!!t}));return r.length?{svg:e,animations:r,animationSettings:t.animationSettings,options:t.options||void 0}:null}function it(t){return+("0x"+(t.replace(/[^0-9a-fA-F]+/g,"")||27))}function ut(t,n,e){return!t||!e||n>t.length?t:t.substring(0,n)+ut(t.substring(n+1),e,e)}function ot(t){var n=arguments.length>1&&void 0!==arguments[1]?arguments[1]:27;return!t||t%n?t%n:ot(t/n,n)}function at(t,n,e){if(t&&t.length){var r=it(e),i=it(n),u=ot(r)+5,o=ut(t,ot(r,5),u);return o=o.replace(/\x7c$/g,"==").replace(/\x2f$/g,"="),o=function(t,n,e){var r=+("0x"+t.substring(0,4));t=t.substring(4);for(var i=n%r+e%27,u=[],o=0;o<t.length;o+=2)if("|"!==t[o]){var a=+("0x"+t[o]+t[o+1])-i;u.push(a)}else{var l=+("0x"+t.substring(o+1,o+1+4))-i;o+=3,u.push(l)}return String.fromCharCode.apply(String,u)}(o=(o=atob(o)).replace(/[\x41-\x5A]/g,""),i,r),o=JSON.parse(o)}}var lt=[{key:"alternate",def:!1},{key:"fill",def:1},{key:"iterations",def:0},{key:"direction",def:1},{key:"speed",def:1},{key:"fps",def:100}],st=function(){function t(n,e){var i=this,u=arguments.length>2&&void 0!==arguments[2]?arguments[2]:null;r(this,t),this._id=0,this._running=!1,this._rollingBack=!1,this._animations=n,this._settings=e,(!u||u<"2022-05-02")&&delete this._settings.speed,lt.forEach((function(t){i._settings[t.key]=i._settings[t.key]||t.def})),this.duration=e.duration,this.offset=e.offset||0,this.rollbackStartOffset=0}return u(t,[{key:"alternate",get:function(){return this._settings.alternate}},{key:"fill",get:function(){return this._settings.fill}},{key:"iterations",get:function(){return this._settings.iterations}},{key:"direction",get:function(){return this._settings.direction}},{key:"speed",get:function(){return this._settings.speed}},{key:"fps",get:function(){return this._settings.fps}},{key:"maxFiniteDuration",get:function(){return this.iterations>0?this.iterations*this.duration:this.duration}},{key:"_apply",value:function(t){for(var n=arguments.length>1&&void 0!==arguments[1]?arguments[1]:{},e=this._animations,r=e.length,i=0,u=0;u<r;u++)n[u]?i++:(n[u]=e[u](t,1),n[u]&&i++);return i}},{key:"_rollback",value:function(t){var n=this,e=1/0,r=null;this.rollbackStartOffset=t,this._rollingBack=!0,this._running=!0;this._id=window.requestAnimationFrame((function i(u){if(n._rollingBack){null==r&&(r=u);var o=Math.round(t-(u-r)*n.speed);if(o>n.duration&&e!==1/0){var a=!!n.alternate&&o/n.duration%2>1,l=o%n.duration;o=(l+=a?n.duration:0)||n.duration}var s=(n.fps?1e3/n.fps:0)*n.speed,f=Math.max(0,o);f<=e-s&&(n.offset=f,e=f,n._apply(f));var c=n.iterations>0&&-1===n.fill&&o>=n.maxFiniteDuration;(o<=0||n.offset<o||c)&&n.stop(),n._id=window.requestAnimationFrame(i)}}))}},{key:"_start",value:function(){var t=this,n=arguments.length>0&&void 0!==arguments[0]?arguments[0]:0,e=-1/0,r=null,i={};this._running=!0;var u=function u(o){null==r&&(r=o);var a=Math.round((o-r)*t.speed+n),l=(t.fps?1e3/t.fps:0)*t.speed;if(a>=e+l&&!t._rollingBack&&(t.offset=a,e=a,t._apply(a,i)===t._animations.length))return void t.pause(!0);t._id=window.requestAnimationFrame(u)};this._id=window.requestAnimationFrame(u)}},{key:"_pause",value:function(){this._id&&window.cancelAnimationFrame(this._id),this._running=!1}},{key:"play",value:function(){if(!this._running)return this._rollingBack?this._rollback(this.offset):this._start(this.offset)}},{key:"stop",value:function(){this._pause(),this.offset=0,this.rollbackStartOffset=0,this._rollingBack=!1,this._apply(0)}},{key:"reachedToEnd",value:function(){return this.iterations>0&&this.offset>=this.iterations*this.duration}},{key:"restart",value:function(){var t=arguments.length>0&&void 0!==arguments[0]&&arguments[0];this.stop(t),this.play(t)}},{key:"pause",value:function(){this._pause()}},{key:"reverse",value:function(){this.direction=-this.direction}}],[{key:"build",value:function(t,n){delete t.animationSettings,t.options=at(t.options,t.root,"5c7f360c"),t.animations.map((function(n){n.settings=at(n.s,t.root,"5c7f360c"),delete n.s,t.animationSettings||(t.animationSettings=n.settings)}));var e=t.version;if(!(t=rt(t,n)))return null;var r=t.options||{},i=new this(t.animations,t.animationSettings,e);return{el:t.svg,options:r,player:i}}},{key:"push",value:function(t){return this.build(t)}},{key:"init",value:function(){var t=this,n=window.__SVGATOR_PLAYER__&&window.__SVGATOR_PLAYER__["5c7f360c"];Array.isArray(n)&&n.splice(0).forEach((function(n){return t.build(n)}))}}]),t}();function ft(t){return d(t)+""}function ct(t){var n=arguments.length>1&&void 0!==arguments[1]?arguments[1]:" ";return t&&t.length?t.map(ft).join(n):""}function ht(t){if(!t)return"transparent";if(null==t.a||t.a>=1){var n=function(t){return 1===(t=parseInt(t).toString(16)).length?"0"+t:t},e=function(t){return t.charAt(0)===t.charAt(1)},r=n(t.r),i=n(t.g),u=n(t.b);return e(r)&&e(i)&&e(u)&&(r=r.charAt(0),i=i.charAt(0),u=u.charAt(0)),"#"+r+i+u}return"rgba("+t.r+","+t.g+","+t.b+","+t.a+")"}function vt(t){return t?"url(#"+t+")":"none"}!function(){for(var t=0,n=["ms","moz","webkit","o"],e=0;e<n.length&&!window.requestAnimationFrame;++e)window.requestAnimationFrame=window[n[e]+"RequestAnimationFrame"],window.cancelAnimationFrame=window[n[e]+"CancelAnimationFrame"]||window[n[e]+"CancelRequestAnimationFrame"];window.requestAnimationFrame||(window.requestAnimationFrame=function(n){var e=Date.now(),r=Math.max(0,16-(e-t)),i=window.setTimeout((function(){n(e+r)}),r);return t=e+r,i},window.cancelAnimationFrame=window.clearTimeout)}();var yt={f:null,i:function(t,n,e){return 0===t?n:1===t?e:{x:B(t,n.x,e.x),y:B(t,n.y,e.y)}},u:function(t,n){return function(e){var r=n(e);t.setAttribute("rx",ft(r.x)),t.setAttribute("ry",ft(r.y))}}},gt={f:null,i:function(t,n,e){return 0===t?n:1===t?e:{width:B(t,n.width,e.width),height:B(t,n.height,e.height)}},u:function(t,n){return function(e){var r=n(e);t.setAttribute("width",ft(r.width)),t.setAttribute("height",ft(r.height))}}};Object.freeze({M:2,L:2,Z:0,H:1,V:1,C:6,Q:4,T:2,S:4,A:7});var dt={},pt=null;function mt(t){var n=function(){if(pt)return pt;if("object"!==("undefined"==typeof document?"undefined":e(document))||!document.createElementNS)return{};var t=document.createElementNS("http://www.w3.org/2000/svg","svg");return t&&t.style?(t.style.position="absolute",t.style.opacity="0.01",t.style.zIndex="-9999",t.style.left="-9999px",t.style.width="1px",t.style.height="1px",pt={svg:t}):{}}().svg;if(!n)return function(t){return null};var r=document.createElementNS(n.namespaceURI,"path");r.setAttributeNS(null,"d",t),r.setAttributeNS(null,"fill","none"),r.setAttributeNS(null,"stroke","none"),n.appendChild(r);var i=r.getTotalLength();return function(t){var n=r.getPointAtLength(i*t);return{x:n.x,y:n.y}}}function bt(t){return dt[t]?dt[t]:dt[t]=mt(t)}function wt(t,n,e,r){if(!t||!r)return!1;var i=["M",t.x,t.y];if(n&&e&&(i.push("C"),i.push(n.x),i.push(n.y),i.push(e.x),i.push(e.y)),n?!e:e){var u=n||e;i.push("Q"),i.push(u.x),i.push(u.y)}return n||e||i.push("L"),i.push(r.x),i.push(r.y),i.join(" ")}function xt(t,n,e,r){var i=arguments.length>4&&void 0!==arguments[4]?arguments[4]:1,u=wt(t,n,e,r),o=bt(u);try{return o(i)}catch(t){return null}}function At(t,n,e){return t+(n-t)*e}function kt(t,n,e){var r=arguments.length>3&&void 0!==arguments[3]&&arguments[3],i={x:At(t.x,n.x,e),y:At(t.y,n.y,e)};return r&&(i.a=_t(t,n)),i}function _t(t,n){return Math.atan2(n.y-t.y,n.x-t.x)}function St(t,n,e,r){var i=1-r;return i*i*t+2*i*r*n+r*r*e}function Ot(t,n,e,r){return 2*(1-r)*(n-t)+2*r*(e-n)}function jt(t,n,e,r){var i=arguments.length>4&&void 0!==arguments[4]&&arguments[4],u=xt(t,n,null,e,r);return u||(u={x:St(t.x,n.x,e.x,r),y:St(t.y,n.y,e.y,r)}),i&&(u.a=Mt(t,n,e,r)),u}function Mt(t,n,e,r){return Math.atan2(Ot(t.y,n.y,e.y,r),Ot(t.x,n.x,e.x,r))}function Pt(t,n,e,r,i){var u=i*i;return i*u*(r-t+3*(n-e))+3*u*(t+e-2*n)+3*i*(n-t)+t}function Et(t,n,e,r,i){var u=1-i;return 3*(u*u*(n-t)+2*u*i*(e-n)+i*i*(r-e))}function It(t,n,e,r,i){var u=arguments.length>5&&void 0!==arguments[5]&&arguments[5],o=xt(t,n,e,r,i);return o||(o={x:Pt(t.x,n.x,e.x,r.x,i),y:Pt(t.y,n.y,e.y,r.y,i)}),u&&(o.a=Rt(t,n,e,r,i)),o}function Rt(t,n,e,r,i){return Math.atan2(Et(t.y,n.y,e.y,r.y,i),Et(t.x,n.x,e.x,r.x,i))}function Ft(t,n,e){var r=arguments.length>3&&void 0!==arguments[3]&&arguments[3];if(Tt(n)){if(qt(e))return jt(n,e.start,e,t,r)}else if(Tt(e)){if(Bt(n))return jt(n,n.end,e,t,r)}else{if(Bt(n))return qt(e)?It(n,n.end,e.start,e,t,r):jt(n,n.end,e,t,r);if(qt(e))return jt(n,e.start,e,t,r)}return kt(n,e,t,r)}function Nt(t,n,e){var r=Ft(t,n,e,!0);return r.a=function(t){return arguments.length>1&&void 0!==arguments[1]&&arguments[1]?t+Math.PI:t}(r.a)/m,r}function Tt(t){return!t.type||"corner"===t.type}function qt(t){return null!=t.start&&!Tt(t)}function Bt(t){return null!=t.end&&!Tt(t)}var Lt=new N;var Ct={f:ft,i:q},Dt={f:ft,i:L};function zt(t,n,e){return t.map((function(t){return function(t,n,e){var r=t.v;if(!r||"g"!==r.t||r.s||!r.v||!r.r)return t;var i=e.getElementById(r.r),u=i&&i.querySelectorAll("stop")||[];return r.s=r.v.map((function(t,n){var e=u[n]&&u[n].getAttribute("offset");return{c:t,o:e=d(parseInt(e)/100)}})),delete r.v,t}(t,0,e)}))}var Vt={gt:"gradientTransform",c:{x:"cx",y:"cy"},rd:"r",f:{x:"x1",y:"y1"},to:{x:"x2",y:"y2"}};function Gt(t,n,r,i,u,o,a,l){return zt(t,0,l),n=function(t,n,e){for(var r,i,u,o=t.length-1,a={},l=0;l<=o;l++)(r=t[l]).e&&(r.e=n(r.e)),r.v&&"g"===(i=r.v).t&&i.r&&(u=e.getElementById(i.r))&&(a[i.r]={e:u,s:u.querySelectorAll("stop")});return a}(t,i,l),function(i){var u=r(i,t,Yt);if(!u)return"none";if("c"===u.t)return ht(u.v);if("g"===u.t){if(!n[u.r])return vt(u.r);var o=n[u.r];return function(t,n){for(var e=t.s,r=e.length;r<n.length;r++){var i=e[e.length-1].cloneNode();i.id=Qt(i.id),t.e.appendChild(i),e=t.s=t.e.querySelectorAll("stop")}for(var u=0,o=e.length,a=n.length-1;u<o;u++)e[u].setAttribute("stop-color",ht(n[Math.min(u,a)].c)),e[u].setAttribute("offset",n[Math.min(u,a)].o)}(o,u.s),Object.keys(Vt).forEach((function(t){if(void 0!==u[t])if("object"!==e(Vt[t])){var n,r="gt"===t?(n=u[t],Array.isArray(n)?"matrix("+n.join(" ")+")":""):u[t],i=Vt[t];o.e.setAttribute(i,r)}else Object.keys(Vt[t]).forEach((function(n){if(void 0!==u[t][n]){var e=u[t][n],r=Vt[t][n];o.e.setAttribute(r,e)}}))})),vt(u.r)}return"none"}}function Yt(t,e,r){if(0===t)return e;if(1===t)return r;if(e&&r){var i=e.t;if(i===r.t)switch(e.t){case"c":return{t:i,v:z(t,e.v,r.v)};case"g":if(e.r===r.r){var u={t:i,s:$t(t,e.s,r.s),r:e.r};return e.gt&&r.gt&&(u.gt=function(t,n,e){var r=n.length;if(r!==e.length)return T(t,n,e);for(var i=new Array(r),u=0;u<r;u++)i[u]=q(t,n[u],e[u]);return i}(t,e.gt,r.gt)),e.c?(u.c=C(t,e.c,r.c),u.rd=B(t,e.rd,r.rd)):e.f&&(u.f=C(t,e.f,r.f),u.to=C(t,e.to,r.to)),u}}if("c"===e.t&&"g"===r.t||"c"===r.t&&"g"===e.t){var o="c"===e.t?e:r,a="g"===e.t?n({},e):n({},r),l=a.s.map((function(t){return{c:o.v,o:t.o}}));return a.s="c"===e.t?$t(t,l,a.s):$t(t,a.s,l),a}}return T(t,e,r)}function $t(t,n,e){if(n.length===e.length)return n.map((function(n,r){return Ut(t,n,e[r])}));for(var r=Math.max(n.length,e.length),i=[],u=0;u<r;u++){var o=Ut(t,n[Math.min(u,n.length-1)],e[Math.min(u,e.length-1)]);i.push(o)}return i}function Ut(t,n,e){return{o:L(t,n.o,e.o||0),c:z(t,n.c,e.c||{})}}function Qt(t){return t.replace(/-fill-([0-9]+)$/,(function(t,n){return"-fill-"+(+n+1)}))}var Ht={fill:Gt,"fill-opacity":Dt,stroke:Gt,"stroke-opacity":Dt,"stroke-width":Ct,"stroke-dashoffset":{f:ft,i:q},"stroke-dasharray":{f:function(t){var n=arguments.length>1&&void 0!==arguments[1]?arguments[1]:" ";return t&&t.length>0&&(t=t.map((function(t){return d(t,4)}))),ct(t,n)},i:function(t,n,e){var r,i,u,o=n.length,a=e.length;if(o!==a)if(0===o)n=V(o=a,0);else if(0===a)a=o,e=V(o,0);else{var l=(u=(r=o)*(i=a)/function(t,n){for(var e;n;)e=n,n=t%n,t=e;return t||1}(r,i))<0?-u:u;n=G(n,Math.floor(l/o)),e=G(e,Math.floor(l/a)),o=a=l}for(var s=[],f=0;f<o;f++)s.push(d(B(t,n[f],e[f])));return s}},opacity:Dt,transform:function(t,n,r,i){if(!(t=function(t,n){if(!t||"object"!==e(t))return null;var r=!1;for(var i in t)t.hasOwnProperty(i)&&(t[i]&&t[i].length?(t[i].forEach((function(t){t.e&&(t.e=n(t.e))})),r=!0):delete t[i]);return r?t:null}(t,i)))return null;var u=function(e,i,u){var o=arguments.length>3&&void 0!==arguments[3]?arguments[3]:null;return t[e]?r(i,t[e],u):n&&n[e]?n[e]:o};return n&&n.a&&t.o?function(n){var e=r(n,t.o,Nt);return Lt.recomposeSelf(e,u("r",n,q,0)+e.a,u("k",n,C),u("s",n,C),u("t",n,C)).toString()}:function(t){return Lt.recomposeSelf(u("o",t,Ft,null),u("r",t,q,0),u("k",t,C),u("s",t,C),u("t",t,C)).toString()}},r:Ct,"#size":gt,"#radius":yt,_:function(t,n){if(Array.isArray(t))for(var e=0;e<t.length;e++)this[t[e]]=n;else this[t]=n}},Jt=function(t){!function(t,n){if("function"!=typeof n&&null!==n)throw new TypeError("Super expression must either be null or a function");t.prototype=Object.create(n&&n.prototype,{constructor:{value:t,writable:!0,configurable:!0}}),n&&l(t,n)}(o,t);var n,e,i=(n=o,e=s(),function(){var t,r=a(n);if(e){var i=a(this).constructor;t=Reflect.construct(r,arguments,i)}else t=r.apply(this,arguments);return c(this,t)});function o(){return r(this,o),i.apply(this,arguments)}return u(o,null,[{key:"build",value:function(t){var n=h(a(o),"build",this).call(this,t,Ht);if(!n)return null;n.el,n.options,function(t,n,e){t.play()}(n.player)}}]),o}(st);return Jt.init(),Jt}));
(function(s,i,o,w,a,b){w[o]=w[o]||{};w[o][s]=w[o][s]||[];w[o][s].push(i);})('5c7f360c',{"root":"eTbOX7tgqYv1","version":"2022-05-04","animations":[{"elements":{"eTbOX7tgqYv7":{"transform":{"data":{"o":{"x":131.785839,"y":219.792,"type":"corner"},"t":{"x":-131.785839,"y":-219.792}},"keys":{"r":[{"t":2000,"v":0},{"t":2300,"v":8.66988},{"t":2800,"v":0}]}}},"eTbOX7tgqYv8":{"transform":{"data":{"o":{"x":82.550598,"y":259.292091,"type":"corner"},"t":{"x":-92.285828,"y":-258.791847}},"keys":{"r":[{"t":0,"v":0,"e":[0.42,0,1,1]},{"t":500,"v":10.047066,"e":[0.42,0,1,1]},{"t":900,"v":0},{"t":1300,"v":5.933608,"e":[0.42,0,1,1]},{"t":1700,"v":0}]}}},"eTbOX7tgqYv10":{"transform":{"data":{"t":{"x":-297.285751,"y":-221.292}},"keys":{"o":[{"t":3000,"v":{"x":297.285751,"y":221.292,"type":"corner"}},{"t":3500,"v":{"x":334.275,"y":232.436746,"type":"corner"}},{"t":4000,"v":{"x":297.285751,"y":221.292,"type":"corner"}}],"r":[{"t":3000,"v":0},{"t":3500,"v":16.214427},{"t":4000,"v":0}]}}},"eTbOX7tgqYv11":{"transform":{"data":{"t":{"x":-223.286003,"y":-72.291851}},"keys":{"o":[{"t":0,"v":{"x":223.286003,"y":72.291851,"type":"corner"}},{"t":1000,"v":{"x":236.144068,"y":69.969551,"type":"corner"}},{"t":1500,"v":{"x":236.144068,"y":69.969551,"type":"corner"}},{"t":4000,"v":{"x":223.286003,"y":72.291851,"type":"corner"}}],"r":[{"t":0,"v":0},{"t":1000,"v":11.738287},{"t":1500,"v":12.750615},{"t":4000,"v":0}]}}},"eTbOX7tgqYv18":{"transform":{"data":{"t":{"x":-171.785622,"y":-119.291985}},"keys":{"o":[{"t":1000,"v":{"x":168.322082,"y":120.74704,"type":"corner"}},{"t":1300,"v":{"x":168.390646,"y":124.283682,"type":"corner"}},{"t":1500,"v":{"x":168.482015,"y":121.390679,"type":"corner"}},{"t":2900,"v":{"x":168.322082,"y":120.74704,"type":"corner"}}]}}},"eTbOX7tgqYv25":{"transform":{"data":{"t":{"x":-311.286011,"y":-101.291851}},"keys":{"o":[{"t":0,"v":{"x":311.286011,"y":101.291851,"type":"corner"}},{"t":1000,"v":{"x":304.285793,"y":116.390863,"type":"corner"}},{"t":2000,"v":{"x":381.286023,"y":125.292,"type":"corner"}},{"t":3000,"v":{"x":386.129651,"y":83.189964,"type":"corner"}},{"t":4000,"v":{"x":311.286011,"y":101.291851,"type":"corner"}}]}}},"eTbOX7tgqYv28":{"transform":{"data":{"t":{"x":-112.785751,"y":-46.291747}},"keys":{"o":[{"t":0,"v":{"x":112.785752,"y":46.291747,"type":"corner"}},{"t":700,"v":{"x":95.237101,"y":59.062506,"type":"corner"}},{"t":1000,"v":{"x":100.573264,"y":49.395737,"type":"corner"}},{"t":1300,"v":{"x":92.285822,"y":61.72927,"type":"corner"}},{"t":1500,"v":{"x":92.285822,"y":73.069877,"type":"corner"}},{"t":2900,"v":{"x":112.785752,"y":46.291747,"type":"corner"}}],"r":[{"t":0,"v":0},{"t":700,"v":-23.808359},{"t":1000,"v":-13.300541},{"t":1300,"v":-20.774597},{"t":1500,"v":-34.082443},{"t":2900,"v":0}]}}}},"s":"MHDA1ZEM5MDM3NzlEOGCE4Nzc2ODk3ZTg0SDgYzMzc0ZjQ5NDU0NTQ1WNDEzNzc5N2U4NzdhRDjc4ODk3ZTg0ODMzNzSRmNDY0MTM3N2U4OTdYhODc3Njg5N2U4NDgzVODgzNzRmNDU0MTM3NF2I3ZTgxODEzNzRmNDPZJNDEzNzc2ODE4OTdYhODc4Mzc2ODk3YVAzANzRmN2I3NjgxODg3YFTQxMzdCODg4NTdhN2NE3OTM3NGY0NjQxMzdAMN2I4NTg4Mzc0ZjQ2CNDU0NTkyUA|"}],"options":"MBDAxMEo4ODJmODA4MTAZlN2Y4MTJmNDcyZjcD5N2M2ZTcxMmY4YQ|"},'__SVGATOR_PLAYER__',window)
]]></script>
</svg>
