<svg id="ei8NQDzA6jY1" xmlns="http://www.w3.org/2000/svg" xmlns:xlink="http://www.w3.org/1999/xlink" viewBox="0 0 540 525" shape-rendering="geometricPrecision" text-rendering="geometricPrecision"><path id="ei8NQDzA6jY2" d="M125.187,397.313L167,331.192L73.3587,271.313L25,347.787l77.453,49.526h22.734Z" fill="#f0f0f0"/><path d="M80,416.313h103v-20h-103v20Zm101.662-1.29h-100.3243v-17.419h100.3243v17.419Z" clip-rule="evenodd" fill="#3f3d56" fill-rule="evenodd"/><path d="M171.5,413.313c3.59,0,6.5-2.91,6.5-6.5c0-3.589-2.91-6.5-6.5-6.5s-6.5,2.911-6.5,6.5c0,3.59,2.91,6.5,6.5,6.5Z" fill="#222f65"/><path d="M151.5,413.313c3.59,0,6.5-2.91,6.5-6.5c0-3.589-2.91-6.5-6.5-6.5s-6.5,2.911-6.5,6.5c0,3.59,2.91,6.5,6.5,6.5Z" fill="#222f65"/><path d="M133.5,413.313c3.59,0,6.5-2.91,6.5-6.5c0-3.589-2.91-6.5-6.5-6.5s-6.5,2.911-6.5,6.5c0,3.59,2.91,6.5,6.5,6.5Z" fill="#222f65"/><path d="M114.5,413.313c3.59,0,6.5-2.91,6.5-6.5c0-3.589-2.91-6.5-6.5-6.5s-6.5,2.911-6.5,6.5c0,3.59,2.91,6.5,6.5,6.5Z" fill="#222f65"/><path d="M95.5,413.313c3.5899,0,6.5-2.91,6.5-6.5c0-3.589-2.9101-6.5-6.5-6.5s-6.5,2.911-6.5,6.5c0,3.59,2.9101,6.5,6.5,6.5Z" fill="#222f65"/><path d="M307.462,185.254v-51.075h25.538v-24.866h-125v125h106.855v-12.221c0-4.601,1.828-9.014,5.081-12.267c3.254-3.254,7.666-5.081,12.267-5.081h.797v-19.49h-25.538Z" fill="#f0f0f0"/><rect id="ei8NQDzA6jY10" width="41" height="41" rx="0" ry="0" transform="matrix(.970296-.241922 0.241922 0.970296 47.649505 9.918846)" fill="#f0f0f0"/><rect width="84" height="17" rx="0" ry="0" transform="translate(362 432.313)" fill="#222f65"/><rect width="123" height="16" rx="0" ry="0" transform="translate(340 346.313)" fill="#f0f0f0"/><rect width="524" height="1" rx="0" ry="0" transform="translate(0 523.313)" fill="#3f3d56"/><path d="M331.035,524.313h152.93c9.956-.011,18.024-8.075,18.035-18.026v-283.947c-.011-9.951-8.079-18.015-18.035-18.027h-152.93c-9.956.012-18.024,8.076-18.035,18.027v283.947c.011,9.951,8.079,18.015,18.035,18.026ZM314.345,222.34c.011-9.209,7.477-16.672,16.69-16.682h152.93c9.213.01,16.679,7.473,16.69,16.682v283.947c-.011,9.209-7.477,16.671-16.69,16.682h-152.93c-9.213-.011-16.679-7.473-16.69-16.682v-283.947Z" clip-rule="evenodd" fill="#3f3d56" fill-rule="evenodd"/><path d="M386,214.313c0,2.21,1.791,4,4,4c2.208-.002,3.998-1.791,4-4c0-2.209-1.791-4-4-4s-4,1.791-4,4Zm1.333,0c0-1.472,1.194-2.666,2.667-2.666c1.472.001,2.665,1.194,2.667,2.666c0,1.473-1.194,2.667-2.667,2.667s-2.667-1.194-2.667-2.667Z" clip-rule="evenodd" fill="#3f3d56" fill-rule="evenodd"/><rect width="30" height="1" rx="0" ry="0" transform="translate(400 213.313)" fill="#3f3d56"/><path d="M491,223.313v54c-29.823-.001-53.999-24.177-54-54h54Z" fill="#222f65"/><path d="M325,506.313h166v-283h-166v283Zm164.656-1.344h-163.312v-280.311h163.312v280.311Z" clip-rule="evenodd" fill="#3f3d56" fill-rule="evenodd"/><path d="M451.5,274.313c10.217,0,18.5-8.282,18.5-18.5c0-10.217-8.283-18.5-18.5-18.5s-18.5,8.283-18.5,18.5c0,10.218,8.283,18.5,18.5,18.5Z" opacity="0.1"/><path id="ei8NQDzA6jY20" d="M448.5,276.313c10.217,0,18.5-8.282,18.5-18.5c0-10.217-8.283-18.5-18.5-18.5s-18.5,8.283-18.5,18.5c0,10.218,8.283,18.5,18.5,18.5Z" fill="#222f65"/><rect id="ei8NQDzA6jY21" width="26" height="9" rx="0" ry="0" transform="translate(332 234.313)" fill="#3f3d56"/><rect width="26" height="9" rx="0" ry="0" transform="translate(346 324.313)" fill="#3f3d56"/><path d="M347,359.313h124v-17h-124v17Zm122.652-1.307h-121.304v-14.385h121.304v14.385Z" clip-rule="evenodd" fill="#3f3d56" fill-rule="evenodd"/><rect width="123" height="16" rx="0" ry="0" transform="translate(340 397.313)" fill="#f0f0f0"/><rect width="26" height="9" rx="0" ry="0" transform="translate(346 374.313)" fill="#3f3d56"/><path d="M347,410.313h124v-17h-124v17Zm122.652-1.307h-121.304v-14.385h121.304v14.385Z" clip-rule="evenodd" fill="#3f3d56" fill-rule="evenodd"/><path d="M366,445.313h85v-18h-85v18Zm83.651-1.285h-82.302v-15.429h82.302v15.429Z" clip-rule="evenodd" fill="#3f3d56" fill-rule="evenodd"/><path d="M466,352.813c0,2.742-1.72,5.189-4.3,6.116-2.579.928-5.463.138-7.209-1.975l-.007-.007c-1.701-2.063-1.964-4.958-.664-7.294c1.3-2.337,3.899-3.639,6.548-3.281c2.65.358,4.81,2.303,5.444,4.901-.001.002,0,.003.001.005.002.001.003.002.005.001.12.503.181,1.018.182,1.534Z" fill="#222f65"/><path d="M466,352.439c0,2.899-1.765,5.487-4.411,6.468-2.646.982-5.604.146-7.396-2.089l-.006-.007c-.123-.532-.186-1.076-.187-1.623c0-2.899,1.765-5.487,4.411-6.468c2.646-.982,5.604-.146,7.396,2.089c0,.002,0,.004.002.005.001.001.003.002.004.002.123.532.186,1.076.187,1.623Z" opacity="0.1"/><path d="M462.5,362.313c3.59,0,6.5-2.91,6.5-6.5c0-3.589-2.91-6.5-6.5-6.5s-6.5,2.911-6.5,6.5c0,3.59,2.91,6.5,6.5,6.5Z" fill="#222f65"/><path d="M466,402.813c0,2.742-1.72,5.189-4.3,6.116-2.579.928-5.463.138-7.209-1.975l-.007-.007c-1.701-2.063-1.964-4.958-.664-7.294c1.3-2.337,3.899-3.639,6.548-3.281c2.65.358,4.81,2.303,5.444,4.901-.001.002,0,.003.001.005.002.001.003.002.005.001.12.503.181,1.018.182,1.534Z" fill="#222f65"/><path d="M466,403.439c0,2.899-1.765,5.487-4.411,6.468-2.646.982-5.604.146-7.396-2.089l-.006-.007c-.123-.532-.186-1.076-.187-1.623c0-2.899,1.765-5.487,4.411-6.468c2.646-.982,5.604-.146,7.396,2.089c0,.002,0,.004.002.005.001.001.003.002.004.002.123.532.186,1.076.187,1.623Z" opacity="0.1"/><path d="M462.5,413.313c3.59,0,6.5-2.91,6.5-6.5c0-3.589-2.91-6.5-6.5-6.5s-6.5,2.911-6.5,6.5c0,3.59,2.91,6.5,6.5,6.5Z" fill="#222f65"/><rect width="35" height="35" rx="0" ry="0" transform="translate(315 141.313)" fill="#f0f0f0"/><path id="ei8NQDzA6jY35" d="M443,158.313c0,4.419,3.582,8,8,8c4.416-.005,7.995-3.583,8-8c0-4.418-3.582-8-8-8s-8,3.582-8,8Zm1.333,0c0-3.681,2.985-6.666,6.667-6.666c3.68.004,6.662,2.986,6.667,6.666c0,3.682-2.985,6.667-6.667,6.667s-6.667-2.985-6.667-6.667Z" clip-rule="evenodd" fill="#3f3d56" fill-rule="evenodd"/><path d="M257,279.313h17v-17h-17v17Zm15.692-1.307h-14.384v-14.385h14.384v14.385Z" clip-rule="evenodd" fill="#3f3d56" fill-rule="evenodd"/><path d="M523,410.313h17v-17h-17v17Zm15.692-1.307h-14.384v-14.385h14.384v14.385Z" clip-rule="evenodd" fill="#3f3d56" fill-rule="evenodd"/><path id="ei8NQDzA6jY38" d="M195,293.218l2.998,1.625l10.2,5.536l16.467,8.934l9.597-17.929c1.825-3.402,2.232-7.396,1.13-11.1-1.102-3.705-3.622-6.816-7.005-8.647-7.343-3.993-16.406-2.755-22.427,3.064l-.005.005c-1.444,1.396-2.663,3.011-3.612,4.786L195,293.218Z" fill="#2f2e41"/><path d="M240,473.394l-1.931,22.88-7.242,1.039-4.827-26l14,2.081Z" fill="#ffb8b8"/><path d="M228.352,497.932c0,0,9.575-5.132,11.591-1.027c0,0-1.512,12.317,4.536,13.856c6.048,1.54,8.568,12.317,0,13.343-8.567,1.026-14.111-2.053-17.135-2.053s0-10.777,0-10.777l1.008-13.342Z" fill="#2f2e41"/><path d="M179,473.394l1.931,22.88l7.242,1.039l4.827-26-14,2.081Z" fill="#ffb8b8"/><path d="M191.648,497.932c0,0-9.575-5.132-11.591-1.027c0,0,1.512,12.317-4.536,13.856-6.048,1.54-8.568,12.317,0,13.343c8.567,1.026,14.111-2.053,17.135-2.053s0-10.777,0-10.777l-1.008-13.342Z" fill="#2f2e41"/><g id="ei8NQDzA6jY43"><path d="M219.5,297.313c7.456,0,13.5-6.044,13.5-13.5c0-7.455-6.044-13.5-13.5-13.5s-13.5,6.045-13.5,13.5c0,7.456,6.044,13.5,13.5,13.5Z" fill="#ffb8b8"/><path d="M212.5,288.313c.828,0,1.5-1.343,1.5-3c0-1.656-.672-3-1.5-3s-1.5,1.344-1.5,3c0,1.657.672,3,1.5,3Z" fill="#ffb8b8"/></g><path d="M179,309.113l10.495,16.695l12.493-1.012l20.489,1.517c0,0,1.934-3.915,3.514-7.724.864-1.903,1.529-3.892,1.983-5.934.5-3.542-6.496-7.083-6.496-7.083s-.275-.05-.735-.162c-.609-.146-1.549-.389-2.578-.743-2.324-.8-5.118-2.155-5.682-4.154-1-3.541,6.496-8.6,6.496-8.6l-8.995-8.6c0,0-7.991,11.236-17.696,13.796-.563.15-1.133.269-1.709.354-.03.005-.055.01-.085.015C179.999,298.996,179,309.113,179,309.113Z" fill="#ffb8b8"/><path d="M184.264,305.313l-5.787,4.539c0,0-4.736,21.682-3.158,27.733c1.579,6.051-.526,11.598-.526,12.607c0,1.008-4.735,38.827-4.735,38.827s-9.471,20.17.526,18.153s6.314-22.187,6.314-22.187L189,349.687v-29.75l-4.736-14.624Z" fill="#ffb8b8"/><path id="ei8NQDzA6jY48" d="M224.046,309.313l4.091,3l2.046,41.996l15.342,35.996c0,0,11.251,17.499,4.091,17.999-7.16.499-11.762-17.999-11.762-17.999l-13.808-34.496L222,322.312l2.046-12.999Z" fill="#ffb8b8"/><path d="M198.734,311.313c0,0,10.087,7.078,26.226,4.55c0,0,4.539,9.1,2.018,14.156-2.522,5.055,3.026,17.188,4.034,18.705c1.009,1.516,12.609,32.86,16.644,66.732c4.034,33.871,15.13,57.126,5.547,60.16-9.582,3.033-29.252,6.572-31.269,3.539-2.017-3.034-5.043-78.36-5.043-78.36l-5.548,28.816c0,0,7.565,49.038,2.017,50.049s-40.347-2.022-39.339-8.089c1.009-6.066,11.096-37.916,11.096-37.916s-.504-63.698,9.583-75.831c0,0,4.034-6.572-1.513-15.167-5.548-8.594-5.044-22.244-5.044-22.244s4.035,0,10.591-9.1Z" transform="translate(0 0.154614)" fill="#2f2e41"/><path d="M190,297.666l8.08,18.647l1.92-1.007-8.358-17.993-1.642.353Z" fill="#2f2e41"/><path d="M218,305.313l6.452,14l1.548-.136-.526-2.382-4.838-10.741c-.623-.146-1.584-.388-2.636-.741Z" fill="#2f2e41"/><path id="ei8NQDzA6jY52" d="M197.377,294.337c.989,3.266,3.79,5.605,7.107,5.936c3.318.332,6.505-1.409,8.09-4.418-6.366-8.54-.906-13.905,9.436-17.964c1.593-3.033,1.241-6.755-.891-9.418-5.773-.757-11.571,1.201-15.776,5.329l-.005.005-7.347,13.983c-1.058,2.008-1.279,4.369-.614,6.547Z" fill="#2f2e41"/><path id="ei8NQDzA6jY53" d="M218,280.435l15.212,6.878L236,281.172c-.48-2.245-1.486-4.344-2.935-6.126l-10.47-4.733L218,280.435Z" fill="#2f2e41"/><path id="ei8NQDzA6jY54" d="M254.5,415.313c3.59,0,6.5-2.91,6.5-6.5c0-3.589-2.91-6.5-6.5-6.5s-6.5,2.911-6.5,6.5c0,3.59,2.91,6.5,6.5,6.5Z" fill="#222f65"/><path d="M38.5,455.313c2.4853,0,4.5-2.014,4.5-4.5c0-2.485-2.0147-4.5-4.5-4.5s-4.5,2.015-4.5,4.5c0,2.486,2.0147,4.5,4.5,4.5Z" fill="#ff6584"/><rect width="1" height="50" rx="0" ry="0" transform="translate(59 474.313)" fill="#3f3d56"/><path d="M60,480.313c3.866,0,7-3.134,7-7s-3.134-7-7-7-7,3.134-7,7s3.134,7,7,7Z" fill="#3f3d56"/><path id="ei8NQDzA6jY58" d="M59,504.313c0,0-.9767-21.272-21-18.8l21,18.8Z" fill="#3f3d56"/>
<script><![CDATA[
!function(t,n){"object"==typeof exports&&"undefined"!=typeof module?module.exports=n():"function"==typeof define&&define.amd?define(n):((t="undefined"!=typeof globalThis?globalThis:t||self).__SVGATOR_PLAYER__=t.__SVGATOR_PLAYER__||{},t.__SVGATOR_PLAYER__["5c7f360c"]=n())}(this,(function(){"use strict";function t(t,n){var e=Object.keys(t);if(Object.getOwnPropertySymbols){var r=Object.getOwnPropertySymbols(t);n&&(r=r.filter((function(n){return Object.getOwnPropertyDescriptor(t,n).enumerable}))),e.push.apply(e,r)}return e}function n(n){for(var e=1;e<arguments.length;e++){var r=null!=arguments[e]?arguments[e]:{};e%2?t(Object(r),!0).forEach((function(t){o(n,t,r[t])})):Object.getOwnPropertyDescriptors?Object.defineProperties(n,Object.getOwnPropertyDescriptors(r)):t(Object(r)).forEach((function(t){Object.defineProperty(n,t,Object.getOwnPropertyDescriptor(r,t))}))}return n}function e(t){return(e="function"==typeof Symbol&&"symbol"==typeof Symbol.iterator?function(t){return typeof t}:function(t){return t&&"function"==typeof Symbol&&t.constructor===Symbol&&t!==Symbol.prototype?"symbol":typeof t})(t)}function r(t,n){if(!(t instanceof n))throw new TypeError("Cannot call a class as a function")}function i(t,n){for(var e=0;e<n.length;e++){var r=n[e];r.enumerable=r.enumerable||!1,r.configurable=!0,"value"in r&&(r.writable=!0),Object.defineProperty(t,r.key,r)}}function u(t,n,e){return n&&i(t.prototype,n),e&&i(t,e),t}function o(t,n,e){return n in t?Object.defineProperty(t,n,{value:e,enumerable:!0,configurable:!0,writable:!0}):t[n]=e,t}function a(t){return(a=Object.setPrototypeOf?Object.getPrototypeOf:function(t){return t.__proto__||Object.getPrototypeOf(t)})(t)}function l(t,n){return(l=Object.setPrototypeOf||function(t,n){return t.__proto__=n,t})(t,n)}function s(){if("undefined"==typeof Reflect||!Reflect.construct)return!1;if(Reflect.construct.sham)return!1;if("function"==typeof Proxy)return!0;try{return Boolean.prototype.valueOf.call(Reflect.construct(Boolean,[],(function(){}))),!0}catch(t){return!1}}function f(t,n,e){return(f=s()?Reflect.construct:function(t,n,e){var r=[null];r.push.apply(r,n);var i=new(Function.bind.apply(t,r));return e&&l(i,e.prototype),i}).apply(null,arguments)}function c(t,n){if(n&&("object"==typeof n||"function"==typeof n))return n;if(void 0!==n)throw new TypeError("Derived constructors may only return object or undefined");return function(t){if(void 0===t)throw new ReferenceError("this hasn't been initialised - super() hasn't been called");return t}(t)}function h(t,n,e){return(h="undefined"!=typeof Reflect&&Reflect.get?Reflect.get:function(t,n,e){var r=function(t,n){for(;!Object.prototype.hasOwnProperty.call(t,n)&&null!==(t=a(t)););return t}(t,n);if(r){var i=Object.getOwnPropertyDescriptor(r,n);return i.get?i.get.call(e):i.value}})(t,n,e||t)}function v(t){return function(t){if(Array.isArray(t))return y(t)}(t)||function(t){if("undefined"!=typeof Symbol&&null!=t[Symbol.iterator]||null!=t["@@iterator"])return Array.from(t)}(t)||function(t,n){if(!t)return;if("string"==typeof t)return y(t,n);var e=Object.prototype.toString.call(t).slice(8,-1);"Object"===e&&t.constructor&&(e=t.constructor.name);if("Map"===e||"Set"===e)return Array.from(t);if("Arguments"===e||/^(?:Ui|I)nt(?:8|16|32)(?:Clamped)?Array$/.test(e))return y(t,n)}(t)||function(){throw new TypeError("Invalid attempt to spread non-iterable instance.\nIn order to be iterable, non-array objects must have a [Symbol.iterator]() method.")}()}function y(t,n){(null==n||n>t.length)&&(n=t.length);for(var e=0,r=new Array(n);e<n;e++)r[e]=t[e];return r}Number.isInteger||(Number.isInteger=function(t){return"number"==typeof t&&isFinite(t)&&Math.floor(t)===t}),Number.EPSILON||(Number.EPSILON=2220446049250313e-31);var g=d(Math.pow(10,-6));function d(t){var n=arguments.length>1&&void 0!==arguments[1]?arguments[1]:6;if(Number.isInteger(t))return t;var e=Math.pow(10,n);return Math.round((+t+Number.EPSILON)*e)/e}function p(t,n){var e=arguments.length>2&&void 0!==arguments[2]?arguments[2]:g;return Math.abs(t-n)<e}var m=Math.PI/180;function b(t){return t}function w(t,n,e){var r=1-e;return 3*e*r*(t*r+n*e)+e*e*e}function x(){var t=arguments.length>0&&void 0!==arguments[0]?arguments[0]:0,n=arguments.length>1&&void 0!==arguments[1]?arguments[1]:0,e=arguments.length>2&&void 0!==arguments[2]?arguments[2]:1,r=arguments.length>3&&void 0!==arguments[3]?arguments[3]:1;return t<0||t>1||e<0||e>1?null:p(t,n)&&p(e,r)?b:function(i){if(i<=0)return t>0?i*n/t:0===n&&e>0?i*r/e:0;if(i>=1)return e<1?1+(i-1)*(r-1)/(e-1):1===e&&t<1?1+(i-1)*(n-1)/(t-1):1;for(var u,o=0,a=1;o<a;){var l=w(t,e,u=(o+a)/2);if(p(i,l))break;l<i?o=u:a=u}return w(n,r,u)}}function A(){return 1}function k(t){return 1===t?1:0}function _(){var t=arguments.length>0&&void 0!==arguments[0]?arguments[0]:1,n=arguments.length>1&&void 0!==arguments[1]?arguments[1]:0;if(1===t){if(0===n)return k;if(1===n)return A}var e=1/t;return function(t){return t>=1?1:(t+=n*e)-t%e}}var S=Math.sin,O=Math.cos,j=Math.acos,M=Math.asin,P=Math.tan,E=Math.atan2,I=Math.PI/180,R=180/Math.PI,F=Math.sqrt,N=function(){function t(){var n=arguments.length>0&&void 0!==arguments[0]?arguments[0]:1,e=arguments.length>1&&void 0!==arguments[1]?arguments[1]:0,i=arguments.length>2&&void 0!==arguments[2]?arguments[2]:0,u=arguments.length>3&&void 0!==arguments[3]?arguments[3]:1,o=arguments.length>4&&void 0!==arguments[4]?arguments[4]:0,a=arguments.length>5&&void 0!==arguments[5]?arguments[5]:0;r(this,t),this.m=[n,e,i,u,o,a],this.i=null,this.w=null,this.s=null}return u(t,[{key:"determinant",get:function(){var t=this.m;return t[0]*t[3]-t[1]*t[2]}},{key:"isIdentity",get:function(){if(null===this.i){var t=this.m;this.i=1===t[0]&&0===t[1]&&0===t[2]&&1===t[3]&&0===t[4]&&0===t[5]}return this.i}},{key:"point",value:function(t,n){var e=this.m;return{x:e[0]*t+e[2]*n+e[4],y:e[1]*t+e[3]*n+e[5]}}},{key:"translateSelf",value:function(){var t=arguments.length>0&&void 0!==arguments[0]?arguments[0]:0,n=arguments.length>1&&void 0!==arguments[1]?arguments[1]:0;if(!t&&!n)return this;var e=this.m;return e[4]+=e[0]*t+e[2]*n,e[5]+=e[1]*t+e[3]*n,this.w=this.s=this.i=null,this}},{key:"rotateSelf",value:function(){var t=arguments.length>0&&void 0!==arguments[0]?arguments[0]:0;if(t%=360){var n=S(t*=I),e=O(t),r=this.m,i=r[0],u=r[1];r[0]=i*e+r[2]*n,r[1]=u*e+r[3]*n,r[2]=r[2]*e-i*n,r[3]=r[3]*e-u*n,this.w=this.s=this.i=null}return this}},{key:"scaleSelf",value:function(){var t=arguments.length>0&&void 0!==arguments[0]?arguments[0]:1,n=arguments.length>1&&void 0!==arguments[1]?arguments[1]:1;if(1!==t||1!==n){var e=this.m;e[0]*=t,e[1]*=t,e[2]*=n,e[3]*=n,this.w=this.s=this.i=null}return this}},{key:"skewSelf",value:function(t,n){if(n%=360,(t%=360)||n){var e=this.m,r=e[0],i=e[1],u=e[2],o=e[3];t&&(t=P(t*I),e[2]+=r*t,e[3]+=i*t),n&&(n=P(n*I),e[0]+=u*n,e[1]+=o*n),this.w=this.s=this.i=null}return this}},{key:"resetSelf",value:function(){var t=arguments.length>0&&void 0!==arguments[0]?arguments[0]:1,n=arguments.length>1&&void 0!==arguments[1]?arguments[1]:0,e=arguments.length>2&&void 0!==arguments[2]?arguments[2]:0,r=arguments.length>3&&void 0!==arguments[3]?arguments[3]:1,i=arguments.length>4&&void 0!==arguments[4]?arguments[4]:0,u=arguments.length>5&&void 0!==arguments[5]?arguments[5]:0,o=this.m;return o[0]=t,o[1]=n,o[2]=e,o[3]=r,o[4]=i,o[5]=u,this.w=this.s=this.i=null,this}},{key:"recomposeSelf",value:function(){var t=arguments.length>0&&void 0!==arguments[0]?arguments[0]:null,n=arguments.length>1&&void 0!==arguments[1]?arguments[1]:null,e=arguments.length>2&&void 0!==arguments[2]?arguments[2]:null,r=arguments.length>3&&void 0!==arguments[3]?arguments[3]:null,i=arguments.length>4&&void 0!==arguments[4]?arguments[4]:null;return this.isIdentity||this.resetSelf(),t&&(t.x||t.y)&&this.translateSelf(t.x,t.y),n&&this.rotateSelf(n),e&&(e.x&&this.skewSelf(e.x,0),e.y&&this.skewSelf(0,e.y)),!r||1===r.x&&1===r.y||this.scaleSelf(r.x,r.y),i&&(i.x||i.y)&&this.translateSelf(i.x,i.y),this}},{key:"decompose",value:function(){var t=arguments.length>0&&void 0!==arguments[0]?arguments[0]:0,n=arguments.length>1&&void 0!==arguments[1]?arguments[1]:0,e=this.m,r=e[0]*e[0]+e[1]*e[1],i=[[e[0],e[1]],[e[2],e[3]]],u=F(r);if(0===u)return{origin:{x:d(e[4]),y:d(e[5])},translate:{x:d(t),y:d(n)},scale:{x:0,y:0},skew:{x:0,y:0},rotate:0};i[0][0]/=u,i[0][1]/=u;var o=e[0]*e[3]-e[1]*e[2]<0;o&&(u=-u);var a=i[0][0]*i[1][0]+i[0][1]*i[1][1];i[1][0]-=i[0][0]*a,i[1][1]-=i[0][1]*a;var l=F(i[1][0]*i[1][0]+i[1][1]*i[1][1]);if(0===l)return{origin:{x:d(e[4]),y:d(e[5])},translate:{x:d(t),y:d(n)},scale:{x:d(u),y:0},skew:{x:0,y:0},rotate:0};i[1][0]/=l,i[1][1]/=l,a/=l;var s=0;return i[1][1]<0?(s=j(i[1][1])*R,i[0][1]<0&&(s=360-s)):s=M(i[0][1])*R,o&&(s=-s),a=E(a,F(i[0][0]*i[0][0]+i[0][1]*i[0][1]))*R,o&&(a=-a),{origin:{x:d(e[4]),y:d(e[5])},translate:{x:d(t),y:d(n)},scale:{x:d(u),y:d(l)},skew:{x:d(a),y:0},rotate:d(s)}}},{key:"clone",value:function(){var t=this.m;return new this.constructor(t[0],t[1],t[2],t[3],t[4],t[5])}},{key:"toString",value:function(){var t=arguments.length>0&&void 0!==arguments[0]?arguments[0]:" ";if(null===this.s){var n=this.m.map((function(t){return d(t)}));1===n[0]&&0===n[1]&&0===n[2]&&1===n[3]?this.s="translate("+n[4]+t+n[5]+")":this.s="matrix("+n.join(t)+")"}return this.s}}],[{key:"create",value:function(t){return t?Array.isArray(t)?f(this,v(t)):t instanceof this?t.clone():(new this).recomposeSelf(t.origin,t.rotate,t.skew,t.scale,t.translate):new this}}]),t}();function T(t,n,e){return t>=.5?e:n}function q(t,n,e){return 0===t||n===e?n:t*(e-n)+n}function B(t,n,e){var r=q(t,n,e);return r<=0?0:r}function L(t,n,e){var r=q(t,n,e);return r<=0?0:r>=1?1:r}function C(t,n,e){return 0===t?n:1===t?e:{x:q(t,n.x,e.x),y:q(t,n.y,e.y)}}function D(t,n,e){var r=function(t,n,e){return Math.round(q(t,n,e))}(t,n,e);return r<=0?0:r>=255?255:r}function z(t,n,e){return 0===t?n:1===t?e:{r:D(t,n.r,e.r),g:D(t,n.g,e.g),b:D(t,n.b,e.b),a:q(t,null==n.a?1:n.a,null==e.a?1:e.a)}}function V(t,n){for(var e=[],r=0;r<t;r++)e.push(n);return e}function G(t,n){if(--n<=0)return t;var e=(t=Object.assign([],t)).length;do{for(var r=0;r<e;r++)t.push(t[r])}while(--n>0);return t}var Y,$=function(){function t(n){r(this,t),this.list=n,this.length=n.length}return u(t,[{key:"setAttribute",value:function(t,n){for(var e=this.list,r=0;r<this.length;r++)e[r].setAttribute(t,n)}},{key:"removeAttribute",value:function(t){for(var n=this.list,e=0;e<this.length;e++)n[e].removeAttribute(t)}},{key:"style",value:function(t,n){for(var e=this.list,r=0;r<this.length;r++)e[r].style[t]=n}}]),t}(),U=/-./g,Q=function(t,n){return n.toUpperCase()};function H(t){return"function"==typeof t?t:T}function J(t){return t?"function"==typeof t?t:Array.isArray(t)?function(t){var n=arguments.length>1&&void 0!==arguments[1]?arguments[1]:b;if(!Array.isArray(t))return n;switch(t.length){case 1:return _(t[0])||n;case 2:return _(t[0],t[1])||n;case 4:return x(t[0],t[1],t[2],t[3])||n}return n}(t,null):function(t,n){var e=arguments.length>2&&void 0!==arguments[2]?arguments[2]:b;switch(t){case"linear":return b;case"steps":return _(n.steps||1,n.jump||0)||e;case"bezier":case"cubic-bezier":return x(n.x1||0,n.y1||0,n.x2||0,n.y2||0)||e}return e}(t.type,t.value,null):null}function Z(t,n,e){var r=arguments.length>3&&void 0!==arguments[3]&&arguments[3],i=n.length-1;if(t<=n[0].t)return r?[0,0,n[0].v]:n[0].v;if(t>=n[i].t)return r?[i,1,n[i].v]:n[i].v;var u,o=n[0],a=null;for(u=1;u<=i;u++){if(!(t>n[u].t)){a=n[u];break}o=n[u]}return null==a?r?[i,1,n[i].v]:n[i].v:o.t===a.t?r?[u,1,a.v]:a.v:(t=(t-o.t)/(a.t-o.t),o.e&&(t=o.e(t)),r?[u,t,e(t,o.v,a.v)]:e(t,o.v,a.v))}function K(t,n){var e=arguments.length>2&&void 0!==arguments[2]?arguments[2]:null;return t&&t.length?"function"!=typeof n?null:("function"!=typeof e&&(e=null),function(r){var i=Z(r,t,n);return null!=i&&e&&(i=e(i)),i}):null}function W(t,n){return t.t-n.t}function X(t,n,r,i,u){var o,a="@"===r[0],l="#"===r[0],s=Y[r],f=T;switch(a?(o=r.substr(1),r=o.replace(U,Q)):l&&(r=r.substr(1)),e(s)){case"function":if(f=s(i,u,Z,J,r,a,n,t),l)return f;break;case"string":f=K(i,H(s));break;case"object":if((f=K(i,H(s.i),s.f))&&"function"==typeof s.u)return s.u(n,f,r,a,t)}return f?function(t,n,e){if(arguments.length>3&&void 0!==arguments[3]&&arguments[3])return t instanceof $?function(r){return t.style(n,e(r))}:function(r){return t.style[n]=e(r)};if(Array.isArray(n)){var r=n.length;return function(i){var u=e(i);if(null==u)for(var o=0;o<r;o++)t[o].removeAttribute(n);else for(var a=0;a<r;a++)t[a].setAttribute(n,u)}}return function(r){var i=e(r);null==i?t.removeAttribute(n):t.setAttribute(n,i)}}(n,r,f,a):null}function tt(t,n,r,i){if(!i||"object"!==e(i))return null;var u=null,o=null;return Array.isArray(i)?o=function(t){if(!t||!t.length)return null;for(var n=0;n<t.length;n++)t[n].e&&(t[n].e=J(t[n].e));return t.sort(W)}(i):(o=i.keys,u=i.data||null),o?X(t,n,r,o,u):null}function nt(t,n,e){if(!e)return null;var r=[];for(var i in e)if(e.hasOwnProperty(i)){var u=tt(t,n,i,e[i]);u&&r.push(u)}return r.length?r:null}function et(t,n){if(!n.settings.duration||n.settings.duration<0)return null;var e,r,i,u,o,a=function(t,n){if(!n)return null;var e=[];if(Array.isArray(n))for(var r=n.length,i=0;i<r;i++){var u=n[i];if(2===u.length){var o=null;if("string"==typeof u[0])o=t.getElementById(u[0]);else if(Array.isArray(u[0])){o=[];for(var a=0;a<u[0].length;a++)if("string"==typeof u[0][a]){var l=t.getElementById(u[0][a]);l&&o.push(l)}o=o.length?1===o.length?o[0]:new $(o):null}if(o){var s=nt(t,o,u[1]);s&&(e=e.concat(s))}}}else for(var f in n)if(n.hasOwnProperty(f)){var c=t.getElementById(f);if(c){var h=nt(t,c,n[f]);h&&(e=e.concat(h))}}return e.length?e:null}(t,n.elements);return a?(e=a,r=n.settings,i=r.duration,u=e.length,o=null,function(t,n){var a=r.iterations||1/0,l=(r.alternate&&a%2==0)^r.direction>0?i:0,s=t%i,f=1+(t-s)/i;n*=r.direction,r.alternate&&f%2==0&&(n=-n);var c=!1;if(f>a)s=l,c=!0,-1===r.fill&&(s=r.direction>0?0:i);else if(n<0&&(s=i-s),s===o)return!1;o=s;for(var h=0;h<u;h++)e[h](s);return c}):null}function rt(t,n){if(Y=n,!t||!t.root||!Array.isArray(t.animations))return null;var e=function(t){for(var n=document.getElementsByTagName("svg"),e=0;e<n.length;e++)if(n[e].id===t.root&&!n[e].svgatorAnimation)return n[e].svgatorAnimation=!0,n[e];return null}(t);if(!e)return null;var r=t.animations.map((function(t){return et(e,t)})).filter((function(t){return!!t}));return r.length?{svg:e,animations:r,animationSettings:t.animationSettings,options:t.options||void 0}:null}function it(t){return+("0x"+(t.replace(/[^0-9a-fA-F]+/g,"")||27))}function ut(t,n,e){return!t||!e||n>t.length?t:t.substring(0,n)+ut(t.substring(n+1),e,e)}function ot(t){var n=arguments.length>1&&void 0!==arguments[1]?arguments[1]:27;return!t||t%n?t%n:ot(t/n,n)}function at(t,n,e){if(t&&t.length){var r=it(e),i=it(n),u=ot(r)+5,o=ut(t,ot(r,5),u);return o=o.replace(/\x7c$/g,"==").replace(/\x2f$/g,"="),o=function(t,n,e){var r=+("0x"+t.substring(0,4));t=t.substring(4);for(var i=n%r+e%27,u=[],o=0;o<t.length;o+=2)if("|"!==t[o]){var a=+("0x"+t[o]+t[o+1])-i;u.push(a)}else{var l=+("0x"+t.substring(o+1,o+1+4))-i;o+=3,u.push(l)}return String.fromCharCode.apply(String,u)}(o=(o=atob(o)).replace(/[\x41-\x5A]/g,""),i,r),o=JSON.parse(o)}}var lt=[{key:"alternate",def:!1},{key:"fill",def:1},{key:"iterations",def:0},{key:"direction",def:1},{key:"speed",def:1},{key:"fps",def:100}],st=function(){function t(n,e){var i=this,u=arguments.length>2&&void 0!==arguments[2]?arguments[2]:null;r(this,t),this._id=0,this._running=!1,this._rollingBack=!1,this._animations=n,this._settings=e,(!u||u<"2022-05-02")&&delete this._settings.speed,lt.forEach((function(t){i._settings[t.key]=i._settings[t.key]||t.def})),this.duration=e.duration,this.offset=e.offset||0,this.rollbackStartOffset=0}return u(t,[{key:"alternate",get:function(){return this._settings.alternate}},{key:"fill",get:function(){return this._settings.fill}},{key:"iterations",get:function(){return this._settings.iterations}},{key:"direction",get:function(){return this._settings.direction}},{key:"speed",get:function(){return this._settings.speed}},{key:"fps",get:function(){return this._settings.fps}},{key:"maxFiniteDuration",get:function(){return this.iterations>0?this.iterations*this.duration:this.duration}},{key:"_apply",value:function(t){for(var n=arguments.length>1&&void 0!==arguments[1]?arguments[1]:{},e=this._animations,r=e.length,i=0,u=0;u<r;u++)n[u]?i++:(n[u]=e[u](t,1),n[u]&&i++);return i}},{key:"_rollback",value:function(t){var n=this,e=1/0,r=null;this.rollbackStartOffset=t,this._rollingBack=!0,this._running=!0;this._id=window.requestAnimationFrame((function i(u){if(n._rollingBack){null==r&&(r=u);var o=Math.round(t-(u-r)*n.speed);if(o>n.duration&&e!==1/0){var a=!!n.alternate&&o/n.duration%2>1,l=o%n.duration;o=(l+=a?n.duration:0)||n.duration}var s=(n.fps?1e3/n.fps:0)*n.speed,f=Math.max(0,o);f<=e-s&&(n.offset=f,e=f,n._apply(f));var c=n.iterations>0&&-1===n.fill&&o>=n.maxFiniteDuration;(o<=0||n.offset<o||c)&&n.stop(),n._id=window.requestAnimationFrame(i)}}))}},{key:"_start",value:function(){var t=this,n=arguments.length>0&&void 0!==arguments[0]?arguments[0]:0,e=-1/0,r=null,i={};this._running=!0;var u=function u(o){null==r&&(r=o);var a=Math.round((o-r)*t.speed+n),l=(t.fps?1e3/t.fps:0)*t.speed;if(a>=e+l&&!t._rollingBack&&(t.offset=a,e=a,t._apply(a,i)===t._animations.length))return void t.pause(!0);t._id=window.requestAnimationFrame(u)};this._id=window.requestAnimationFrame(u)}},{key:"_pause",value:function(){this._id&&window.cancelAnimationFrame(this._id),this._running=!1}},{key:"play",value:function(){if(!this._running)return this._rollingBack?this._rollback(this.offset):this._start(this.offset)}},{key:"stop",value:function(){this._pause(),this.offset=0,this.rollbackStartOffset=0,this._rollingBack=!1,this._apply(0)}},{key:"reachedToEnd",value:function(){return this.iterations>0&&this.offset>=this.iterations*this.duration}},{key:"restart",value:function(){var t=arguments.length>0&&void 0!==arguments[0]&&arguments[0];this.stop(t),this.play(t)}},{key:"pause",value:function(){this._pause()}},{key:"reverse",value:function(){this.direction=-this.direction}}],[{key:"build",value:function(t,n){delete t.animationSettings,t.options=at(t.options,t.root,"5c7f360c"),t.animations.map((function(n){n.settings=at(n.s,t.root,"5c7f360c"),delete n.s,t.animationSettings||(t.animationSettings=n.settings)}));var e=t.version;if(!(t=rt(t,n)))return null;var r=t.options||{},i=new this(t.animations,t.animationSettings,e);return{el:t.svg,options:r,player:i}}},{key:"push",value:function(t){return this.build(t)}},{key:"init",value:function(){var t=this,n=window.__SVGATOR_PLAYER__&&window.__SVGATOR_PLAYER__["5c7f360c"];Array.isArray(n)&&n.splice(0).forEach((function(n){return t.build(n)}))}}]),t}();function ft(t){return d(t)+""}function ct(t){var n=arguments.length>1&&void 0!==arguments[1]?arguments[1]:" ";return t&&t.length?t.map(ft).join(n):""}function ht(t){if(!t)return"transparent";if(null==t.a||t.a>=1){var n=function(t){return 1===(t=parseInt(t).toString(16)).length?"0"+t:t},e=function(t){return t.charAt(0)===t.charAt(1)},r=n(t.r),i=n(t.g),u=n(t.b);return e(r)&&e(i)&&e(u)&&(r=r.charAt(0),i=i.charAt(0),u=u.charAt(0)),"#"+r+i+u}return"rgba("+t.r+","+t.g+","+t.b+","+t.a+")"}function vt(t){return t?"url(#"+t+")":"none"}!function(){for(var t=0,n=["ms","moz","webkit","o"],e=0;e<n.length&&!window.requestAnimationFrame;++e)window.requestAnimationFrame=window[n[e]+"RequestAnimationFrame"],window.cancelAnimationFrame=window[n[e]+"CancelAnimationFrame"]||window[n[e]+"CancelRequestAnimationFrame"];window.requestAnimationFrame||(window.requestAnimationFrame=function(n){var e=Date.now(),r=Math.max(0,16-(e-t)),i=window.setTimeout((function(){n(e+r)}),r);return t=e+r,i},window.cancelAnimationFrame=window.clearTimeout)}();var yt={f:null,i:function(t,n,e){return 0===t?n:1===t?e:{x:B(t,n.x,e.x),y:B(t,n.y,e.y)}},u:function(t,n){return function(e){var r=n(e);t.setAttribute("rx",ft(r.x)),t.setAttribute("ry",ft(r.y))}}},gt={f:null,i:function(t,n,e){return 0===t?n:1===t?e:{width:B(t,n.width,e.width),height:B(t,n.height,e.height)}},u:function(t,n){return function(e){var r=n(e);t.setAttribute("width",ft(r.width)),t.setAttribute("height",ft(r.height))}}};Object.freeze({M:2,L:2,Z:0,H:1,V:1,C:6,Q:4,T:2,S:4,A:7});var dt={},pt=null;function mt(t){var n=function(){if(pt)return pt;if("object"!==("undefined"==typeof document?"undefined":e(document))||!document.createElementNS)return{};var t=document.createElementNS("http://www.w3.org/2000/svg","svg");return t&&t.style?(t.style.position="absolute",t.style.opacity="0.01",t.style.zIndex="-9999",t.style.left="-9999px",t.style.width="1px",t.style.height="1px",pt={svg:t}):{}}().svg;if(!n)return function(t){return null};var r=document.createElementNS(n.namespaceURI,"path");r.setAttributeNS(null,"d",t),r.setAttributeNS(null,"fill","none"),r.setAttributeNS(null,"stroke","none"),n.appendChild(r);var i=r.getTotalLength();return function(t){var n=r.getPointAtLength(i*t);return{x:n.x,y:n.y}}}function bt(t){return dt[t]?dt[t]:dt[t]=mt(t)}function wt(t,n,e,r){if(!t||!r)return!1;var i=["M",t.x,t.y];if(n&&e&&(i.push("C"),i.push(n.x),i.push(n.y),i.push(e.x),i.push(e.y)),n?!e:e){var u=n||e;i.push("Q"),i.push(u.x),i.push(u.y)}return n||e||i.push("L"),i.push(r.x),i.push(r.y),i.join(" ")}function xt(t,n,e,r){var i=arguments.length>4&&void 0!==arguments[4]?arguments[4]:1,u=wt(t,n,e,r),o=bt(u);try{return o(i)}catch(t){return null}}function At(t,n,e){return t+(n-t)*e}function kt(t,n,e){var r=arguments.length>3&&void 0!==arguments[3]&&arguments[3],i={x:At(t.x,n.x,e),y:At(t.y,n.y,e)};return r&&(i.a=_t(t,n)),i}function _t(t,n){return Math.atan2(n.y-t.y,n.x-t.x)}function St(t,n,e,r){var i=1-r;return i*i*t+2*i*r*n+r*r*e}function Ot(t,n,e,r){return 2*(1-r)*(n-t)+2*r*(e-n)}function jt(t,n,e,r){var i=arguments.length>4&&void 0!==arguments[4]&&arguments[4],u=xt(t,n,null,e,r);return u||(u={x:St(t.x,n.x,e.x,r),y:St(t.y,n.y,e.y,r)}),i&&(u.a=Mt(t,n,e,r)),u}function Mt(t,n,e,r){return Math.atan2(Ot(t.y,n.y,e.y,r),Ot(t.x,n.x,e.x,r))}function Pt(t,n,e,r,i){var u=i*i;return i*u*(r-t+3*(n-e))+3*u*(t+e-2*n)+3*i*(n-t)+t}function Et(t,n,e,r,i){var u=1-i;return 3*(u*u*(n-t)+2*u*i*(e-n)+i*i*(r-e))}function It(t,n,e,r,i){var u=arguments.length>5&&void 0!==arguments[5]&&arguments[5],o=xt(t,n,e,r,i);return o||(o={x:Pt(t.x,n.x,e.x,r.x,i),y:Pt(t.y,n.y,e.y,r.y,i)}),u&&(o.a=Rt(t,n,e,r,i)),o}function Rt(t,n,e,r,i){return Math.atan2(Et(t.y,n.y,e.y,r.y,i),Et(t.x,n.x,e.x,r.x,i))}function Ft(t,n,e){var r=arguments.length>3&&void 0!==arguments[3]&&arguments[3];if(Tt(n)){if(qt(e))return jt(n,e.start,e,t,r)}else if(Tt(e)){if(Bt(n))return jt(n,n.end,e,t,r)}else{if(Bt(n))return qt(e)?It(n,n.end,e.start,e,t,r):jt(n,n.end,e,t,r);if(qt(e))return jt(n,e.start,e,t,r)}return kt(n,e,t,r)}function Nt(t,n,e){var r=Ft(t,n,e,!0);return r.a=function(t){return arguments.length>1&&void 0!==arguments[1]&&arguments[1]?t+Math.PI:t}(r.a)/m,r}function Tt(t){return!t.type||"corner"===t.type}function qt(t){return null!=t.start&&!Tt(t)}function Bt(t){return null!=t.end&&!Tt(t)}var Lt=new N;var Ct={f:ft,i:q},Dt={f:ft,i:L};function zt(t,n,e){return t.map((function(t){return function(t,n,e){var r=t.v;if(!r||"g"!==r.t||r.s||!r.v||!r.r)return t;var i=e.getElementById(r.r),u=i&&i.querySelectorAll("stop")||[];return r.s=r.v.map((function(t,n){var e=u[n]&&u[n].getAttribute("offset");return{c:t,o:e=d(parseInt(e)/100)}})),delete r.v,t}(t,0,e)}))}var Vt={gt:"gradientTransform",c:{x:"cx",y:"cy"},rd:"r",f:{x:"x1",y:"y1"},to:{x:"x2",y:"y2"}};function Gt(t,n,r,i,u,o,a,l){return zt(t,0,l),n=function(t,n,e){for(var r,i,u,o=t.length-1,a={},l=0;l<=o;l++)(r=t[l]).e&&(r.e=n(r.e)),r.v&&"g"===(i=r.v).t&&i.r&&(u=e.getElementById(i.r))&&(a[i.r]={e:u,s:u.querySelectorAll("stop")});return a}(t,i,l),function(i){var u=r(i,t,Yt);if(!u)return"none";if("c"===u.t)return ht(u.v);if("g"===u.t){if(!n[u.r])return vt(u.r);var o=n[u.r];return function(t,n){for(var e=t.s,r=e.length;r<n.length;r++){var i=e[e.length-1].cloneNode();i.id=Qt(i.id),t.e.appendChild(i),e=t.s=t.e.querySelectorAll("stop")}for(var u=0,o=e.length,a=n.length-1;u<o;u++)e[u].setAttribute("stop-color",ht(n[Math.min(u,a)].c)),e[u].setAttribute("offset",n[Math.min(u,a)].o)}(o,u.s),Object.keys(Vt).forEach((function(t){if(void 0!==u[t])if("object"!==e(Vt[t])){var n,r="gt"===t?(n=u[t],Array.isArray(n)?"matrix("+n.join(" ")+")":""):u[t],i=Vt[t];o.e.setAttribute(i,r)}else Object.keys(Vt[t]).forEach((function(n){if(void 0!==u[t][n]){var e=u[t][n],r=Vt[t][n];o.e.setAttribute(r,e)}}))})),vt(u.r)}return"none"}}function Yt(t,e,r){if(0===t)return e;if(1===t)return r;if(e&&r){var i=e.t;if(i===r.t)switch(e.t){case"c":return{t:i,v:z(t,e.v,r.v)};case"g":if(e.r===r.r){var u={t:i,s:$t(t,e.s,r.s),r:e.r};return e.gt&&r.gt&&(u.gt=function(t,n,e){var r=n.length;if(r!==e.length)return T(t,n,e);for(var i=new Array(r),u=0;u<r;u++)i[u]=q(t,n[u],e[u]);return i}(t,e.gt,r.gt)),e.c?(u.c=C(t,e.c,r.c),u.rd=B(t,e.rd,r.rd)):e.f&&(u.f=C(t,e.f,r.f),u.to=C(t,e.to,r.to)),u}}if("c"===e.t&&"g"===r.t||"c"===r.t&&"g"===e.t){var o="c"===e.t?e:r,a="g"===e.t?n({},e):n({},r),l=a.s.map((function(t){return{c:o.v,o:t.o}}));return a.s="c"===e.t?$t(t,l,a.s):$t(t,a.s,l),a}}return T(t,e,r)}function $t(t,n,e){if(n.length===e.length)return n.map((function(n,r){return Ut(t,n,e[r])}));for(var r=Math.max(n.length,e.length),i=[],u=0;u<r;u++){var o=Ut(t,n[Math.min(u,n.length-1)],e[Math.min(u,e.length-1)]);i.push(o)}return i}function Ut(t,n,e){return{o:L(t,n.o,e.o||0),c:z(t,n.c,e.c||{})}}function Qt(t){return t.replace(/-fill-([0-9]+)$/,(function(t,n){return"-fill-"+(+n+1)}))}var Ht={fill:Gt,"fill-opacity":Dt,stroke:Gt,"stroke-opacity":Dt,"stroke-width":Ct,"stroke-dashoffset":{f:ft,i:q},"stroke-dasharray":{f:function(t){var n=arguments.length>1&&void 0!==arguments[1]?arguments[1]:" ";return t&&t.length>0&&(t=t.map((function(t){return d(t,4)}))),ct(t,n)},i:function(t,n,e){var r,i,u,o=n.length,a=e.length;if(o!==a)if(0===o)n=V(o=a,0);else if(0===a)a=o,e=V(o,0);else{var l=(u=(r=o)*(i=a)/function(t,n){for(var e;n;)e=n,n=t%n,t=e;return t||1}(r,i))<0?-u:u;n=G(n,Math.floor(l/o)),e=G(e,Math.floor(l/a)),o=a=l}for(var s=[],f=0;f<o;f++)s.push(d(B(t,n[f],e[f])));return s}},opacity:Dt,transform:function(t,n,r,i){if(!(t=function(t,n){if(!t||"object"!==e(t))return null;var r=!1;for(var i in t)t.hasOwnProperty(i)&&(t[i]&&t[i].length?(t[i].forEach((function(t){t.e&&(t.e=n(t.e))})),r=!0):delete t[i]);return r?t:null}(t,i)))return null;var u=function(e,i,u){var o=arguments.length>3&&void 0!==arguments[3]?arguments[3]:null;return t[e]?r(i,t[e],u):n&&n[e]?n[e]:o};return n&&n.a&&t.o?function(n){var e=r(n,t.o,Nt);return Lt.recomposeSelf(e,u("r",n,q,0)+e.a,u("k",n,C),u("s",n,C),u("t",n,C)).toString()}:function(t){return Lt.recomposeSelf(u("o",t,Ft,null),u("r",t,q,0),u("k",t,C),u("s",t,C),u("t",t,C)).toString()}},r:Ct,"#size":gt,"#radius":yt,_:function(t,n){if(Array.isArray(t))for(var e=0;e<t.length;e++)this[t[e]]=n;else this[t]=n}},Jt=function(t){!function(t,n){if("function"!=typeof n&&null!==n)throw new TypeError("Super expression must either be null or a function");t.prototype=Object.create(n&&n.prototype,{constructor:{value:t,writable:!0,configurable:!0}}),n&&l(t,n)}(o,t);var n,e,i=(n=o,e=s(),function(){var t,r=a(n);if(e){var i=a(this).constructor;t=Reflect.construct(r,arguments,i)}else t=r.apply(this,arguments);return c(this,t)});function o(){return r(this,o),i.apply(this,arguments)}return u(o,null,[{key:"build",value:function(t){var n=h(a(o),"build",this).call(this,t,Ht);if(!n)return null;n.el,n.options,function(t,n,e){t.play()}(n.player)}}]),o}(st);return Jt.init(),Jt}));
(function(s,i,o,w,a,b){w[o]=w[o]||{};w[o][s]=w[o][s]||[];w[o][s].push(i);})('5c7f360c',{"root":"ei8NQDzA6jY1","version":"2022-05-04","animations":[{"elements":{"ei8NQDzA6jY2":{"transform":{"data":{"o":{"x":96,"y":334.312988,"type":"corner"},"t":{"x":-96,"y":-334.312988}},"keys":{"r":[{"t":1500,"v":0},{"t":2000,"v":-33.070155},{"t":2600,"v":0}]}}},"ei8NQDzA6jY10":{"transform":{"data":{"r":-14.000002,"t":{"x":-20.499999,"y":-20.499983}},"keys":{"o":[{"t":600,"v":{"x":72.499962,"y":24.850492,"type":"corner"}},{"t":2000,"v":{"x":140,"y":152.988,"type":"corner"}},{"t":2700,"v":{"x":146.649533,"y":78.099941,"type":"corner"}},{"t":3900,"v":{"x":73.350457,"y":24.850446,"type":"corner"}}]}}},"ei8NQDzA6jY20":{"transform":{"data":{"o":{"x":448.5,"y":257.812996,"type":"corner"},"t":{"x":-448.5,"y":-257.812996}},"keys":{"s":[{"t":0,"v":{"x":1,"y":1}},{"t":1000,"v":{"x":1.407025,"y":1.407025}},{"t":2000,"v":{"x":1,"y":1}}]}}},"ei8NQDzA6jY21":{"transform":{"data":{"t":{"x":-13,"y":-4.500004}},"keys":{"o":[{"t":2000,"v":{"x":345,"y":238.813004,"type":"corner"}},{"t":3000,"v":{"x":362,"y":237.31301,"type":"corner"}},{"t":4000,"v":{"x":345,"y":238.813004,"type":"corner"}}],"s":[{"t":2000,"v":{"x":1,"y":1}},{"t":3000,"v":{"x":1.846154,"y":1.846154}},{"t":4000,"v":{"x":1,"y":1}}]}}},"ei8NQDzA6jY35":{"transform":{"data":{"t":{"x":-451,"y":-158.313004}},"keys":{"o":[{"t":0,"v":{"x":451,"y":158.313004,"type":"corner"}},{"t":1000,"v":{"x":463,"y":149.313004,"type":"corner"}},{"t":2000,"v":{"x":444.999817,"y":141.313004,"type":"corner"}},{"t":3000,"v":{"x":423,"y":150.813004,"type":"corner"}},{"t":4000,"v":{"x":451,"y":158.313004,"type":"corner"}}]}}},"ei8NQDzA6jY38":{"transform":{"data":{"t":{"x":-215.500046,"y":-289.313248}},"keys":{"o":[{"t":0,"v":{"x":215.500046,"y":289.313248,"type":"corner"}},{"t":1000,"v":{"x":215.3609,"y":287.194371,"type":"corner"}},{"t":3000,"v":{"x":216.872304,"y":286.353716,"type":"corner"}},{"t":4000,"v":{"x":215.500046,"y":289.313248,"type":"corner"}}],"r":[{"t":0,"v":0},{"t":1000,"v":-7.104132},{"t":3000,"v":-1.836298},{"t":4000,"v":0}]}}},"ei8NQDzA6jY43":{"transform":{"data":{"t":{"x":-219.5,"y":-283.812988}},"keys":{"o":[{"t":0,"v":{"x":219.5,"y":283.812988,"type":"corner"}},{"t":1000,"v":{"x":214.989977,"y":282.34295,"type":"corner"}},{"t":3000,"v":{"x":216.999718,"y":282.694441,"type":"corner"}},{"t":4000,"v":{"x":219.5,"y":283.812988,"type":"corner"}}]}}},"ei8NQDzA6jY48":{"transform":{"data":{"t":{"x":-236.999947,"y":-358.813446}},"keys":{"o":[{"t":0,"v":{"x":236.999947,"y":358.813446,"type":"corner"}},{"t":1000,"v":{"x":248.02441,"y":352.008025,"type":"corner"},"e":[0.42,0,0.58,1]},{"t":1500,"v":{"x":248.02441,"y":352.008025,"type":"corner"},"e":[0.42,0,0.58,1]},{"t":2000,"v":{"x":253.450778,"y":344.729356,"type":"corner"}},{"t":4000,"v":{"x":236.999947,"y":358.813446,"type":"corner"}}],"r":[{"t":0,"v":0},{"t":1000,"v":-15.483484,"e":[0.42,0,0.58,1]},{"t":1500,"v":-15.483484,"e":[0.42,0,0.58,1]},{"t":2000,"v":-26.408381},{"t":4000,"v":0}]}}},"ei8NQDzA6jY52":{"transform":{"data":{"t":{"x":-210.000099,"y":-284.313263}},"keys":{"o":[{"t":0,"v":{"x":210.000099,"y":284.313263,"type":"corner"}},{"t":1000,"v":{"x":205.017915,"y":284.194512,"type":"corner"}},{"t":3000,"v":{"x":207.738627,"y":283.306485,"type":"corner"}},{"t":4000,"v":{"x":210.000099,"y":284.313263,"type":"corner"}}],"r":[{"t":0,"v":0},{"t":1000,"v":-16.368514},{"t":3000,"v":-7.70736},{"t":4000,"v":0}]}}},"ei8NQDzA6jY53":{"transform":{"data":{"t":{"x":-227,"y":-278.812988}},"keys":{"o":[{"t":0,"v":{"x":227,"y":278.812988,"type":"corner"}},{"t":1000,"v":{"x":219.881612,"y":272.221059,"type":"corner"}},{"t":3000,"v":{"x":223.403436,"y":272.727632,"type":"corner"}},{"t":4000,"v":{"x":227,"y":278.812988,"type":"corner"}}],"r":[{"t":0,"v":0},{"t":1000,"v":-20.205015},{"t":3000,"v":-20.205015},{"t":4000,"v":0}]}}},"ei8NQDzA6jY54":{"transform":{"data":{"t":{"x":-254.5,"y":-408.812988}},"keys":{"o":[{"t":0,"v":{"x":254.5,"y":408.812988,"type":"corner"}},{"t":1000,"v":{"x":274,"y":396.312988,"type":"corner"}},{"t":1500,"v":{"x":274,"y":396.312988,"type":"cusp","end":{"x":274,"y":396.312988}},"e":[0.42,0,0.58,1]},{"t":1800,"v":{"x":288.856174,"y":383.312988,"type":"cusp","start":{"x":288.856174,"y":383.312988},"end":{"x":386.836229,"y":314.690176}},"e":[0,0,0.58,1]},{"t":4000,"v":{"x":463.5,"y":356.310251,"type":"cusp","start":{"x":435.146721,"y":314.35593}}}]}}},"ei8NQDzA6jY58":{"transform":{"data":{"t":{"x":-48.5,"y":-494.81308}},"keys":{"o":[{"t":0,"v":{"x":48.5,"y":494.81308,"type":"corner"}},{"t":500,"v":{"x":46.431109,"y":499.294095,"type":"corner"}},{"t":1000,"v":{"x":48.5,"y":494.81308,"type":"corner"}}],"r":[{"t":0,"v":0},{"t":500,"v":-19.500175},{"t":1000,"v":0}]}}}},"s":"MDDA1ZGQwNzdiOU1jYUBVjN2I2YzliZUxjNGMIzNzc4Zjg5TTg1ODU4WNTgxNzdiOWJlTGM3YBmFiOGM5YmVjNGMzNzNc4Zjg2ODE3N2JlYzlWiYWM3YjZjOUNiZWM0XYzNjODc3OGY4NTgxTQzc3YmJYYmVjMWMxNzWc4Zlk4NjgxNzdJYjZDjMWM5YmFjN2MzYjZjXOWJhNzc4ZmJiU2I2YCzFjOGJhODE3N09jOGAM1UWJhYmFiOTc3OGYC4NjgxNzdiYmM1Yzg3IN0o4Zjg2ODU4NWQy"}],"options":"MFDAxMDg4MmY4MDgxNmUU3Zkg4MTJmNDcyZjcV5N2M2ZTcxMmY4YQ|"},'__SVGATOR_PLAYER__',window)
]]></script>
</svg>
